<svg xmlns="http://www.w3.org/2000/svg" width="400" height="450" viewBox="0 0 400 450">
  <g id="Illustration-2" transform="translate(-2123 -1183)">
    <rect id="Rectangle_2757" data-name="Rectangle 2757" width="400" height="450" transform="translate(2123 1183)" fill="none"/>
    <g id="Group_6048" data-name="Group 6048" transform="translate(1684.601 828.539)">
      <g id="Group_5977" data-name="Group 5977" transform="translate(441.868 488.556)">
        <g id="Group_5947" data-name="Group 5947" transform="translate(0 3.225)">
          <path id="Path_20305" data-name="Path 20305" d="M449.779,573.985c6.189,11,15.819,18.7,27.237,23.982.054.021.108.053.162.075,15.257,7.009,33.685,9.726,51.455,10.243a281.4,281.4,0,0,0,46.129-2.782c12.94-1.8,21.511-3.8,21.835-3.893.949-.291,1.865-.647,1.865-.647.68-.247,1.359-.539,2.017-.84.022,0,.033-.012.054-.022l.194-.1A31.882,31.882,0,0,0,613.483,589.3,30.939,30.939,0,0,0,619,570.071a54.766,54.766,0,0,0-6.264-23.226c-8.8-16.422-28.834-32.143-49.191-33.566-7.742-.54-18.59.4-29.567-6.427-2.521-1.568-3.357-2.123-5.7-3.611-3.357-2.127-20.564-13.034-41.092-10.736-5.036.564-21.832,3.216-33.84,17.279C436.95,528.99,440.324,557.184,449.779,573.985Z" transform="translate(-441.868 -492.19)" fill="#e1f4fe"/>
        </g>
        <g id="Group_5950" data-name="Group 5950" transform="translate(18.208 27.324)">
          <g id="Group_5948" data-name="Group 5948">
            <path id="Path_20306" data-name="Path 20306" d="M474.5,591.326c1.779,3.957,3.483,7.267,4.819,9.694.054.021.108.053.162.075,15.257,7.009,33.685,9.726,51.456,10.243,5.833.044,11.225-.216,16.077-.647,7.893-4.884,11.44-12.335,9.661-17.511a7.458,7.458,0,0,0-2.609-3.569c-11.8-8.971-30.785-9.208-34.742-19.463-2.631-6.836-9.241-25.9-13.349-37.837-1.273-3.688-10.611-13.468-21.749-12.95-9.262.421-15.516,8.152-16.131,8.929C454.22,545.963,469.327,579.746,474.5,591.326Z" transform="translate(-462.383 -519.342)" fill="#5e8fbd"/>
          </g>
          <g id="Group_5949" data-name="Group 5949" transform="translate(28.893 74.07)">
            <path id="Path_20307" data-name="Path 20307" d="M495.5,606.128a.686.686,0,0,0,.073,0l16.759-2.215a.559.559,0,1,0-.146-1.109l-16.759,2.215a.559.559,0,0,0,.073,1.113Z" transform="translate(-494.937 -602.797)" fill="#08539a"/>
          </g>
        </g>
        <g id="Group_5955" data-name="Group 5955" transform="translate(125.164 34.926)">
          <g id="Group_5951" data-name="Group 5951" transform="translate(4.877)">
            <path id="Path_20308" data-name="Path 20308" d="M595.758,562.424c.573-14.777.367-33.41-4.532-34.464a2.021,2.021,0,0,0-1.342.149C585.919,530.153,590.5,546.791,595.758,562.424Z" transform="translate(-588.385 -527.907)" fill="#8baed0"/>
          </g>
          <g id="Group_5952" data-name="Group 5952" transform="translate(12.25 20.033)">
            <path id="Path_20309" data-name="Path 20309" d="M596.692,564.962c7.226-12.669,10.71-14.969,12.523-14.407A2.2,2.2,0,0,1,610.573,552C611.827,556.087,599.9,563.125,596.692,564.962Z" transform="translate(-596.692 -550.478)" fill="#8baed0"/>
          </g>
          <g id="Group_5953" data-name="Group 5953" transform="translate(0 16.217)">
            <path id="Path_20310" data-name="Path 20310" d="M595.14,564.478s-6.742-19.4-11.4-18.25S595.14,564.478,595.14,564.478Z" transform="translate(-582.89 -546.179)" fill="#8baed0"/>
          </g>
          <g id="Group_5954" data-name="Group 5954" transform="translate(1.761 32.778)">
            <path id="Path_20311" data-name="Path 20311" d="M586.508,587.425h18.448l1.633-22.586H584.874Z" transform="translate(-584.874 -564.839)" fill="#9fbcd8"/>
          </g>
        </g>
        <g id="Group_5975" data-name="Group 5975" transform="translate(37.386)">
          <g id="Group_5956" data-name="Group 5956">
            <path id="Path_20312" data-name="Path 20312" d="M533.366,513.7s7.88-1.537,6.15-9.512-6.919-7.879-6.919-7.879-8.552-13.164-24.5-5.189-4.227,19.313-13.163,26.9-22.143,42.529,6.56,39.232Z" transform="translate(-483.992 -488.556)" fill="#08539a"/>
          </g>
          <g id="Group_5957" data-name="Group 5957" transform="translate(23.641 74.227)">
            <path id="Path_20313" data-name="Path 20313" d="M514.592,602.862a26.415,26.415,0,0,0,8.507,8.96c14.384,8.724,36.273-3.827,43.433-7.936a83.318,83.318,0,0,0,14.6-10.643l23.194,17.36a31.343,31.343,0,0,0,3.881-1.488c.022,0,.033-.011.054-.021l.194-.1a31.877,31.877,0,0,0,12.756-10.707c-6.837-7.655-23.787-25.587-33.255-26.083-12.044-.636-43.142,15.851-43.142,15.851l-34.16-1.154A28.975,28.975,0,0,0,514.592,602.862Z" transform="translate(-510.628 -572.188)" fill="#195fa1"/>
          </g>
          <g id="Group_5970" data-name="Group 5970" transform="translate(16.179 36.079)">
            <g id="Group_5958" data-name="Group 5958" transform="translate(0 6.407)">
              <path id="Path_20314" data-name="Path 20314" d="M518.313,537.917s13.708,8.328,13.067,11.53l-.64,3.2,13.131,31.387a90.474,90.474,0,0,1-33.832,4.7c-1.955-6.228-14.108-45.749-3.577-51.586a6.217,6.217,0,0,1,3.251-.721Z" transform="translate(-502.221 -536.424)" fill="#ffa52e"/>
            </g>
            <g id="Group_5959" data-name="Group 5959" transform="translate(53.406)">
              <path id="Path_20315" data-name="Path 20315" d="M564.454,564l10.283-4.2a2.178,2.178,0,0,0,1.134-2.064V531.364c0-1.447-1.035-2.483-2.061-2.064l-10.282,4.2a2.18,2.18,0,0,0-1.135,2.064v26.368C562.393,563.382,563.428,564.418,564.454,564Z" transform="translate(-562.393 -529.206)" fill="#fff"/>
            </g>
            <g id="Group_5960" data-name="Group 5960" transform="translate(6.002 14.309)">
              <path id="Path_20316" data-name="Path 20316" d="M508.983,557.992a75.159,75.159,0,0,0,15.581,15.075c1.326.949,2.566,1.758,3.688,2.459,7.418,4.625,10.373,4.518,11.526,4.4,10.5-1.1,15.387-18.567,15.646-19.516l7.084-.475s4.475-5.294,3.57-7.052a5.978,5.978,0,0,0-3.16-2.469s4.938-2.081,2.469-3.71-9.229,1.348-9.229,1.348.711-4.14-3.074-2.211-5.629,13-5.629,13c-3.407,7.041-9.3,6.448-15.181,3.16-8.939-4.982-17.814-16.164-17.814-16.164Z" transform="translate(-508.983 -545.328)" fill="#ffb3ae"/>
            </g>
            <g id="Group_5961" data-name="Group 5961" transform="translate(1.596 13.482)">
              <path id="Path_20317" data-name="Path 20317" d="M506.348,559.358a67.743,67.743,0,0,0,17.658,13.6c2.167-3.084,5.4-7.7,7.71-11.063a44.026,44.026,0,0,1-10.827-9.844c-2.6-3.342-4.059-6.305-7.561-7.313a7.83,7.83,0,0,0-6.852,1.036C503.484,548.2,502.975,554.014,506.348,559.358Z" transform="translate(-504.019 -544.396)" fill="#ffb564"/>
            </g>
            <g id="Group_5962" data-name="Group 5962" transform="translate(35.982 6.043)">
              <path id="Path_20318" data-name="Path 20318" d="M542.762,538.315s.871-4.544,5.96-.861,7.235,5.26,6.307,6.826-6.6-1.83-6.6-1.83" transform="translate(-542.762 -536.014)" fill="#ffb3ae"/>
            </g>
            <g id="Group_5963" data-name="Group 5963" transform="translate(41.657 13.322)">
              <path id="Path_20319" data-name="Path 20319" d="M549.156,550.337v.015a1.927,1.927,0,0,0,2.279-.506c1.267-1.475,1.148-4.782,1.148-4.782l-1.892-.848Q549.924,547.277,549.156,550.337Z" transform="translate(-549.156 -544.216)" fill="#ffb3ae"/>
            </g>
            <g id="Group_5964" data-name="Group 5964" transform="translate(38.405 9.937)">
              <path id="Path_20320" data-name="Path 20320" d="M547.538,550.251a1.165,1.165,0,0,0,1.206-.328v-.015a2.563,2.563,0,0,0,.566-.849.046.046,0,0,0,.015-.03,17.2,17.2,0,0,0,.953-5.243l-2.563-3.385-2.174,4.234S544.99,549.492,547.538,550.251Z" transform="translate(-545.491 -540.402)" fill="#ffb3ae"/>
            </g>
            <g id="Group_5965" data-name="Group 5965" transform="translate(28.68 8.346)">
              <path id="Path_20321" data-name="Path 20321" d="M539.871,566.018l5.958-1.147-2.428-1.3c5.705-.254,6.39-14.36,6.39-14.36a1.927,1.927,0,0,1-2.279.506,1.166,1.166,0,0,1-1.206.328c-2.547-.759-2-5.616-2-5.616l3.456-.626a3.685,3.685,0,0,0-.388-1.162l-5.5-4.007a4.184,4.184,0,0,0-1.445.075h-.06a4.311,4.311,0,0,0-3.217,4.275v.313c.06,8.178.3,11.9-1.474,12.721-.478.209-.7.044-.924.3C533.242,557.99,539.871,566.018,539.871,566.018Z" transform="translate(-534.535 -538.609)" fill="#ffb3ae"/>
            </g>
            <g id="Group_5966" data-name="Group 5966" transform="translate(34.062 12.174)">
              <path id="Path_20322" data-name="Path 20322" d="M541.343,550.848a.706.706,0,0,0,.17-.021,4.452,4.452,0,0,0,2.129-7.671.745.745,0,0,0-1.085,1.022,3.289,3.289,0,0,1,.677,3.738,3.2,3.2,0,0,1-2.063,1.462.745.745,0,0,0,.17,1.47Z" transform="translate(-540.598 -542.922)" fill="#ff7a72"/>
            </g>
            <g id="Group_5967" data-name="Group 5967" transform="translate(35.797 12.169)">
              <path id="Path_20323" data-name="Path 20323" d="M547.525,546.441a2.324,2.324,0,0,0,.933-.183,1.756,1.756,0,0,0,.947-2.072.745.745,0,0,0-1.475.215c.03.209.023.451-.066.489-.2.084-.811.193-2.293-.622a13.806,13.806,0,0,1-1.785-1.182.766.766,0,0,0-1.049.081.728.728,0,0,0,.051,1.022l.5-.551-.494.557a14.539,14.539,0,0,0,2.058,1.377A5.773,5.773,0,0,0,547.525,546.441Z" transform="translate(-542.553 -542.916)" fill="#ff7a72"/>
            </g>
            <g id="Group_5968" data-name="Group 5968" transform="translate(35.282 7.632)">
              <path id="Path_20324" data-name="Path 20324" d="M548.215,543.3a.76.76,0,0,0,.323-.073.746.746,0,0,0,.349-.995,8.277,8.277,0,0,0-5.116-4.255,6.594,6.594,0,0,0-.974-.17.752.752,0,0,0-.82.66.745.745,0,0,0,.66.82,5.59,5.59,0,0,1,.761.131,6.806,6.806,0,0,1,4.145,3.459A.747.747,0,0,0,548.215,543.3Z" transform="translate(-541.973 -537.805)" fill="#ff7a72"/>
            </g>
            <g id="Group_5969" data-name="Group 5969" transform="translate(15.449 17.331)">
              <path id="Path_20325" data-name="Path 20325" d="M533.47,563.131a.745.745,0,0,0,.383-1.385c-.083-.05-8.361-5.036-12.839-12.647a.745.745,0,0,0-1.284.756c4.676,7.947,13.008,12.961,13.36,13.17A.73.73,0,0,0,533.47,563.131Z" transform="translate(-519.627 -548.733)" fill="#ff7a72"/>
            </g>
          </g>
          <g id="Group_5974" data-name="Group 5974" transform="translate(23.522 13.382)">
            <g id="Group_5971" data-name="Group 5971" transform="translate(0.144)">
              <path id="Path_20326" data-name="Path 20326" d="M510.656,532.74c1.37,1.37,10.71,10.681,14.463,10.621a1.03,1.03,0,0,0,.819-.3c1.132-1.549-6.674-8.834-6.674-8.834.134-.64.283-1.266.417-1.906l.566-2.561a18.014,18.014,0,0,0,2.235,1.891c1.266.924,4.186,2.89,6.584,2.964,4.484.119,7.493-8.908,7.493-8.908.714-.238,1.43-.461,2.159-.7-.536-1.579-1.057-3.158-1.579-4.737,1.788-4.558,0-13.72,0-13.72l-.774-2.919a19.822,19.822,0,0,1-21.718,8.878c-.581,2.979-1.177,5.943-1.758,8.923v.015c-.417,2.115-.834,4.245-1.266,6.36C511.311,529.448,510.984,531.1,510.656,532.74Z" transform="translate(-510.656 -503.634)" fill="#ffb3ae"/>
            </g>
            <g id="Group_5972" data-name="Group 5972" transform="translate(0 8.191)">
              <path id="Path_20327" data-name="Path 20327" d="M510.953,519.238c.959,2.915,3.1,4.827,4.788,4.273s2.276-3.366,1.317-6.28-3.1-4.826-4.787-4.272S509.994,516.324,510.953,519.238Z" transform="translate(-510.493 -512.863)" fill="#ffb3ae"/>
            </g>
            <g id="Group_5973" data-name="Group 5973" transform="translate(1.113 17.816)">
              <path id="Path_20328" data-name="Path 20328" d="M511.747,530.067l8.058,4.513.566-2.561-7.359-8.312C512.6,525.822,512.178,527.952,511.747,530.067Z" transform="translate(-511.747 -523.707)" fill="#ff7a72"/>
            </g>
          </g>
        </g>
        <g id="Group_5976" data-name="Group 5976" transform="translate(33.972 99.86)">
          <path id="Path_20329" data-name="Path 20329" d="M480.145,607.612l1.338,2.674c15.257,7.009,33.685,9.726,51.456,10.243a281.382,281.382,0,0,0,46.128-2.782c-.938-3.612-4.766-12.217-20.39-15.377a59.479,59.479,0,0,0-6.76-.937C525.293,599.244,480.145,607.612,480.145,607.612Z" transform="translate(-480.145 -601.068)" fill="#5e8fbd"/>
        </g>
      </g>
      <g id="Group_5978" data-name="Group 5978" transform="translate(571.891 532.446)">
        <path id="Path_20330" data-name="Path 20330" d="M588.634,539.971l5.286,8.911v13.432a3.27,3.27,0,0,0,3.27,3.271h90.537a3.27,3.27,0,0,0,3.27-3.271V545.977a3.27,3.27,0,0,0-3.27-3.27H602.451l-12.394-4.584C588.751,537.64,587.9,538.74,588.634,539.971Z" transform="translate(-588.365 -538.007)" fill="#fff"/>
        <rect id="Rectangle_1658" data-name="Rectangle 1658" width="87.867" height="4.728" rx="2.364" transform="translate(10.327 9.757)" fill="#e2e9ef"/>
        <rect id="Rectangle_1659" data-name="Rectangle 1659" width="72.779" height="4.728" rx="2.364" transform="translate(10.327 17.745)" fill="#e2e9ef"/>
      </g>
      <g id="Group_6003" data-name="Group 6003" transform="translate(590.529 545.003)">
        <g id="Group_6001" data-name="Group 6001" transform="translate(82.645)">
          <g id="Group_5979" data-name="Group 5979" transform="translate(0 0.227)">
            <path id="Path_20331" data-name="Path 20331" d="M861.32,648.911c-2.4,4.942-6.449,9.364-11.743,13.151-26.168,18.78-82.523,22.432-116.33,0a62.819,62.819,0,0,1-14.642-13.251c-10.957-13.754-17.439-34.8-15.9-54.664.636-8.158,1.591-18.478,9.08-27.441,15.111-18.059,42.987-13.972,44.4-13.737,19.516,3.166,19.852,14.809,48.08,32.7,31.394,19.918,49.269,17.1,56.975,34.9C864.772,628.706,865.642,639.964,861.32,648.911Z" transform="translate(-702.481 -552.411)" fill="#e1f4fe"/>
          </g>
          <g id="Group_5990" data-name="Group 5990" transform="translate(58.26)">
            <g id="Group_5983" data-name="Group 5983" transform="translate(0 47.634)">
              <g id="Group_5980" data-name="Group 5980">
                <path id="Path_20332" data-name="Path 20332" d="M768.123,661.295l6.548-29.388a24.593,24.593,0,0,1,13.39-16.837l19.324-9.246,19.825,8.245a26.174,26.174,0,0,1,15.567,18.8l5.959,28.427Z" transform="translate(-768.123 -605.824)" fill="#ffa52e"/>
              </g>
              <g id="Group_5981" data-name="Group 5981" transform="translate(27.015 39.71)">
                <path id="Path_20333" data-name="Path 20333" d="M798.561,656.929s5.169-6.776,7.654-6.343,7.078,8.536,7.078,8.536h20.5l.577-5.187s13.111,2.378,17.793,12.391H800.866Z" transform="translate(-798.561 -650.566)" fill="#ffb3ae"/>
              </g>
              <g id="Group_5982" data-name="Group 5982" transform="translate(60.411 24.957)">
                <path id="Path_20334" data-name="Path 20334" d="M838.6,652.694a.628.628,0,0,1-.625-.564l-1.78-17.5a.628.628,0,0,1,1.25-.128l1.78,17.5a.628.628,0,0,1-.561.689Z" transform="translate(-836.188 -633.944)" fill="#08539a"/>
              </g>
            </g>
            <g id="Group_5989" data-name="Group 5989" transform="translate(10.885)">
              <g id="Group_5984" data-name="Group 5984" transform="translate(19.124 37.044)">
                <path id="Path_20335" data-name="Path 20335" d="M802,601.528v13.615s-.973,8.429,4.43,7.673,11.135-15.68,11.135-15.68l-.892-13.244Z" transform="translate(-801.934 -593.892)" fill="#ffb3ae"/>
              </g>
              <g id="Group_5985" data-name="Group 5985" transform="translate(19.199 37.037)">
                <path id="Path_20336" data-name="Path 20336" d="M817.381,604.137l-15.362,9.85V601.524l14.659-7.639Z" transform="translate(-802.018 -593.884)" fill="#ff7a72"/>
              </g>
              <g id="Group_5986" data-name="Group 5986" transform="translate(1.041 6.088)">
                <ellipse id="Ellipse_578" data-name="Ellipse 578" cx="20.207" cy="14.127" rx="20.207" ry="14.127" transform="matrix(0.361, -0.933, 0.933, 0.361, 0, 37.689)" fill="#ffb3ae"/>
              </g>
              <g id="Group_5987" data-name="Group 5987">
                <path id="Path_20337" data-name="Path 20337" d="M816.862,579.7A29.8,29.8,0,0,1,805.234,566S786,581.058,781.461,571.836s6.7-16.5,8-10.23c0,0,10.361-16.785,27.406-5.619S816.862,579.7,816.862,579.7Z" transform="translate(-780.387 -552.155)" fill="#08539a"/>
              </g>
              <g id="Group_5988" data-name="Group 5988" transform="translate(32.242 25.258)">
                <path id="Path_20338" data-name="Path 20338" d="M823.735,587.42c-1.1,3.052-3.43,5.008-5.214,4.368s-2.342-3.634-1.247-6.686,3.429-5.008,5.213-4.368S824.831,584.367,823.735,587.42Z" transform="translate(-816.714 -580.613)" fill="#ffb3ae"/>
              </g>
            </g>
          </g>
          <g id="Group_5994" data-name="Group 5994" transform="translate(11.885 78.177)">
            <g id="Group_5993" data-name="Group 5993">
              <g id="Group_5991" data-name="Group 5991" transform="translate(11.399)">
                <rect id="Rectangle_1660" data-name="Rectangle 1660" width="18.372" height="24.933" fill="#7ca4c9"/>
              </g>
              <g id="Group_5992" data-name="Group 5992" transform="translate(0 4.184)">
                <path id="Path_20339" data-name="Path 20339" d="M720.3,653.318a3.937,3.937,0,0,0,6.973,2.5V661.1a8.11,8.11,0,0,1-3.031.57,8.361,8.361,0,1,1,0-16.722,8.108,8.108,0,0,1,3.031.57v5.287a3.937,3.937,0,0,0-6.973,2.51Z" transform="translate(-715.872 -644.951)" fill="#7ca4c9"/>
              </g>
            </g>
          </g>
          <g id="Group_5997" data-name="Group 5997" transform="translate(13.09 103.105)">
            <g id="Group_5995" data-name="Group 5995">
              <rect id="Rectangle_1661" data-name="Rectangle 1661" width="143.678" height="6.772" fill="#92b3d3"/>
            </g>
            <g id="Group_5996" data-name="Group 5996" transform="translate(17.675 6.773)">
              <path id="Path_20340" data-name="Path 20340" d="M853.475,675.954c-26.168,18.78-82.523,22.432-116.33,0Z" transform="translate(-737.145 -675.954)" fill="#81a7cb"/>
            </g>
          </g>
          <g id="Group_6000" data-name="Group 6000" transform="translate(33.234 64.924)">
            <g id="Group_5998" data-name="Group 5998">
              <path id="Path_20341" data-name="Path 20341" d="M797.064,660.232a2.51,2.51,0,0,1-2.553,3.254H751.937a4.5,4.5,0,0,1-4.149-3.254l-7.769-31.674a2.51,2.51,0,0,1,2.553-3.254h42.575a4.5,4.5,0,0,1,4.148,3.254Z" transform="translate(-739.926 -625.304)" fill="#80d2fb"/>
            </g>
            <g id="Group_5999" data-name="Group 5999" transform="translate(23.346 14.85)">
              <path id="Path_20342" data-name="Path 20342" d="M775.686,646.724a3.8,3.8,0,0,1-3.83,4.689,5.887,5.887,0,0,1-5.547-4.689,3.8,3.8,0,0,1,3.83-4.688A5.888,5.888,0,0,1,775.686,646.724Z" transform="translate(-766.23 -642.036)" fill="#e6eef5"/>
            </g>
          </g>
        </g>
        <g id="Group_6002" data-name="Group 6002" transform="translate(0 21.17)">
          <path id="Path_20343" data-name="Path 20343" d="M744.566,612.27l-5.285-8.91V579.277a3.27,3.27,0,0,0-3.27-3.27H612.635a3.269,3.269,0,0,0-3.27,3.27v26.988a3.269,3.269,0,0,0,3.27,3.27H730.75l12.394,4.584C744.45,614.6,745.3,613.5,744.566,612.27Z" transform="translate(-609.365 -576.007)" fill="#80d2fb"/>
          <rect id="Rectangle_1662" data-name="Rectangle 1662" width="122.015" height="4.728" rx="2.364" transform="translate(4.58 5.092)" fill="#27b3f7"/>
          <rect id="Rectangle_1663" data-name="Rectangle 1663" width="122.015" height="4.728" rx="2.364" transform="translate(4.58 13.968)" fill="#27b3f7"/>
          <rect id="Rectangle_1664" data-name="Rectangle 1664" width="103.377" height="4.728" rx="2.364" transform="translate(4.58 22.843)" fill="#27b3f7"/>
        </g>
      </g>
    </g>
  </g>
</svg>
