<svg xmlns="http://www.w3.org/2000/svg" xmlns:xlink="http://www.w3.org/1999/xlink" width="400" height="450" viewBox="0 0 400 450">
  <defs>
    <clipPath id="clip-path">
      <circle id="Ellipse_596" data-name="Ellipse 596" cx="185.965" cy="185.965" r="185.965" fill="none"/>
    </clipPath>
    <clipPath id="clip-path-2">
      <rect id="Rectangle_1547" data-name="Rectangle 1547" width="172.9" height="157.9" rx="2.7" fill="none"/>
    </clipPath>
  </defs>
  <g id="Illustration-3" transform="translate(-2101 -1604)">
    <g id="Group_3" data-name="Group 3" transform="translate(2072 1600)">
      <g id="Group_6010" data-name="Group 6010" transform="translate(29 29)">
        <circle id="Ellipse_579" data-name="Ellipse 579" cx="192.982" cy="192.982" r="192.982" transform="translate(7.018 7.018)" fill="#27b3f7"/>
        <path id="Path_20344" data-name="Path 20344" d="M229,43.035c102.705,0,185.965,83.26,185.965,185.965S331.705,414.965,229,414.965,43.035,331.705,43.035,229,126.295,43.035,229,43.035M229,29a200.049,200.049,0,0,0-77.854,384.277A200.048,200.048,0,0,0,306.854,44.723,198.765,198.765,0,0,0,229,29Z" transform="translate(-29 -29)" fill="#fff"/>
      </g>
      <g id="Group_6015" data-name="Group 6015" transform="translate(43.035 43.035)">
        <g id="Group_6014" data-name="Group 6014" transform="translate(0 0)" clip-path="url(#clip-path)">
          <g id="Group_6005" data-name="Group 6005" transform="translate(83.725 55.497)">
            <rect id="Rectangle_1545" data-name="Rectangle 1545" width="204.48" height="341.853" rx="2.7" transform="translate(0 0)" fill="#fff"/>
            <g id="Title" transform="translate(0)">
              <path id="Rectangle_1546" data-name="Rectangle 1546" d="M115.743,88.45H313.907a3.158,3.158,0,0,1,3.158,3.158v22.106H112.585V91.608A3.158,3.158,0,0,1,115.743,88.45Z" transform="translate(-112.585 -88.45)" fill="#0796e5"/>
            </g>
            <g id="Data_record_Attendance" data-name="Data record Attendance" transform="translate(9.474 37.896)">
              <rect id="Rectangle_1548" data-name="Rectangle 1548" width="185.532" height="213.954" rx="2.7" fill="#e1f4fe"/>
              <rect id="Rectangle_1547-2" data-name="Rectangle 1547" width="172.9" height="157.9" rx="2.7" transform="translate(6.316 6.316)" fill="#80d2fb"/>
              <path id="Rectangle_1665" data-name="Rectangle 1665" d="M130.822,266.656H294.249a4.736,4.736,0,0,1,4.737,4.737h0a4.737,4.737,0,0,1-4.737,4.737H130.822a4.737,4.737,0,0,1-4.737-4.737h0A4.736,4.736,0,0,1,130.822,266.656Z" transform="translate(-119.769 -96.124)" fill="#80d2fb"/>
              <path id="Rectangle_1666" data-name="Rectangle 1666" d="M142.3,278.131h53.685a4.737,4.737,0,0,1,4.737,4.737h0a4.737,4.737,0,0,1-4.737,4.738H142.3a4.737,4.737,0,0,1-4.737-4.738h0A4.737,4.737,0,0,1,142.3,278.131Z" transform="translate(-117.823 -94.178)" fill="#80d2fb"/>
              <path id="Rectangle_1668" data-name="Rectangle 1668" d="M142.3,290.282h81.318a4.736,4.736,0,0,1,4.737,4.737h0a4.736,4.736,0,0,1-4.737,4.737H142.3a4.736,4.736,0,0,1-4.737-4.737h0A4.736,4.736,0,0,1,142.3,290.282Z" transform="translate(-117.823 -92.117)" fill="#80d2fb"/>
              <path id="Rectangle_1667" data-name="Rectangle 1667" d="M130.822,278.131h0a4.737,4.737,0,0,1,4.737,4.737h0a4.737,4.737,0,0,1-4.737,4.738h0a4.737,4.737,0,0,1-4.737-4.738h0A4.737,4.737,0,0,1,130.822,278.131Z" transform="translate(-119.769 -94.178)" fill="#80d2fb"/>
              <path id="Rectangle_1669" data-name="Rectangle 1669" d="M130.822,290.282h0a4.736,4.736,0,0,1,4.737,4.737h0a4.736,4.736,0,0,1-4.737,4.737h0a4.736,4.736,0,0,1-4.737-4.737h0A4.736,4.736,0,0,1,130.822,290.282Z" transform="translate(-119.769 -92.117)" fill="#80d2fb"/>
              <g id="Group_6013" data-name="Group 6013" transform="translate(6.316 6.316)">
                <g id="Group_6012" data-name="Group 6012" clip-path="url(#clip-path-2)">
                  <g id="Group_6011" data-name="Group 6011" transform="translate(8.787 5.515)">
                    <path id="Path_20345" data-name="Path 20345" d="M222.117,475.793c-.236.453.109.982.442,1.371a42.271,42.271,0,0,0,14.98,11.1c5.661,2.49,13.1,2.125,18.82,4.477,0,3.057-.736,6.746-2.545,9.213-.856,1.167-8.22,1.121-9.77,1.281-3.737.387-7.49.648-11.248.709-6.666.109-13.22.508-19.916.626-6.4.113-12.923.212-19.073-1.578-1.77-4.7-1.6-9.094-.358-13.963a24.648,24.648,0,0,1,3.013-7.38,17.069,17.069,0,0,1,11.046-7.4C211.987,473.413,218.427,473.123,222.117,475.793Z" transform="translate(-123.61 -72.849)" fill="#0796e5"/>
                    <path id="Path_20346" data-name="Path 20346" d="M159.345,468.556c-3.977,4.254-8.016,8.6-10.523,13.854-1.477,3.1-1.874,7.156-3.7,10.03-2.026,3.375-7.329,4.938-10.766,6.275a.9.9,0,0,0-.713,1.243c.5,2.835,1.2,5.614,1.731,8.437a.784.784,0,0,0,.934.779,211,211,0,0,0,23.651.209c2.117-.132,17.69-1.347,18.021-3.8a95.054,95.054,0,0,0,.229-23.6c-.484-4.189-3.6-6.912-6.931-9.5C168.468,470.309,162.906,468.61,159.345,468.556Z" transform="translate(-133.598 -73.715)" fill="#0796e5"/>
                    <path id="Path_20347" data-name="Path 20347" d="M145.963,502.9c.524,1.836,1.1,3.3,1.628,5.139a29.6,29.6,0,0,1,8.966-6.622c1.07-.512,1.411-1.158,2.49-.668,7.25,3.288,13.537,7.66,17.742,14.42,2.253-1.894,3.535-4.767,4.352-7.594.177-.083.291.269.117.357s-.388-.073-.442-.26a66.632,66.632,0,0,1-.725-33.687c2.6-10.921,8.4-21.3,13.055-31.475,1.752-3.833,3.538-7.711,4.262-11.862s.58-10.092-1.844-13.539a266.812,266.812,0,0,1,10.484-33.45c3.1,15.13,4.911,29.846,6.84,45.168q-5.777,10.321-11.557,20.643c-4.551,8.131-2.388,15.443-.846,24.26q1.251,7.158,2.5,14.315c.453,2.608,3.368,10.908,2.263,13.165-2.333,4.767-4.505,9.515-7.143,14.119a6.2,6.2,0,0,1,2.449,4.071,84.761,84.761,0,0,1,13.47-7.834,42.228,42.228,0,0,1,19.966-3.118c.26-1.664,1.091-3.2,1.352-4.86.691-4.412-2.5-8.084-3.434-12.184-1.1-4.813-1.2-10.233-1.472-15.164a123.071,123.071,0,0,1,2.49-33.374,51.712,51.712,0,0,1,4.635-4.294c3.392-10.546,4.675-21.239,7.042-31.984,2.375-10.784,5.209-21.491,6.671-32.453,2.885-21.641,3.178-43.768-1.081-65.252-17.725,3.928-34.436,5.128-52.588,4.771-5.992-.117-12.239-.544-17.421-3.556-6.522,33.447-13.261,67.47-11.634,101.509-4.544,5.076-8.988,9.777-10.6,16.4a41.073,41.073,0,0,0-.76,10.026c.066,8.82.12,17.654.428,26.47.248,7.1-1.964,13.85-4.406,20.415-1.089,2.926-2.254,5.812-3.467,8.694C149,495.385,145.458,501.123,145.963,502.9Z" transform="translate(-131.51 -100.794)" fill="#0796e5"/>
                    <path id="Path_20348" data-name="Path 20348" d="M231.829,268.512a80.12,80.12,0,0,0,2,16.827,31.082,31.082,0,0,0,8.014,14.444,9.777,9.777,0,0,0,6.619-.871,41.623,41.623,0,0,0,8.7-6.043c.643-.581.533-.254.753-1.093a52.813,52.813,0,0,0-2.51-7.427l2.774-3.415a4.455,4.455,0,0,0,.374-3.2c-2.008-10.957-4.025-21.942-7.25-32.6a148.739,148.739,0,0,0-7.956-20.618C238.755,238.2,231.262,254.088,231.829,268.512Z" transform="translate(-116.945 -115.102)" fill="#f79d26"/>
                    <path id="Path_20349" data-name="Path 20349" d="M173.27,325.195a3.755,3.755,0,0,1-.557-1.588,4,4,0,0,1,.772-2.148,32.911,32.911,0,0,0,1.82-3.972c.46-1.046.911-1.3.793-2.421a10,10,0,0,0-.858-2.179c-1.127-2.857-2.3-5.7-3.44-8.55a297.563,297.563,0,0,1-15.144-50.285c-1.9-9.184-1.757-20.524-.437-29.811a143.166,143.166,0,0,1,40.246-18.584c3.443-.978,8.874-2.5,12.3-1.45a154.971,154.971,0,0,1,48.029,24.6,369.534,369.534,0,0,1-.308,66.919c-.606,6.748-3.125,13.023-5.523,19.291,1.207,1.809,2.571,4.8,3.777,6.606a2.533,2.533,0,0,1,.592,1.554,2.417,2.417,0,0,1-.753,1.333c-6.849,7.471-17.009,9.874-26.711,10.393-10.023.538-20.28,2.113-30.415,1.234C189.377,335.442,177.512,333.038,173.27,325.195Z" transform="translate(-129.93 -118.606)" fill="#ffa52e"/>
                    <path id="Path_20350" data-name="Path 20350" d="M207.784,309.9a48.183,48.183,0,0,0,8.6,8.487c.761.582,1.54,1.141,2.319,1.7.281.2-.77.041-.489.242a4.921,4.921,0,0,0,2.366-1.68c2.971-3.184,5-5.43,7.806-8.757,1.722-13.421-.059-26.911-2.483-40.164a180.508,180.508,0,0,0-11.565-38.9c1.566-1.032,2.2-2.906,2.648-4.727-3.123-4.469-6.482-8.468-10.841-10.618a56.851,56.851,0,0,0-6.076,13.3,10.241,10.241,0,0,0,4.021,3.7C208.947,257.545,210.505,284.521,207.784,309.9Z" transform="translate(-122.326 -116.634)" fill="#08539a"/>
                    <path id="Path_20351" data-name="Path 20351" d="M150.562,242.788c.561-5.124,2.609-9.951,4.633-14.691q1.263-2.963,2.529-5.925c.039-.09.094-.194.191-.207s.166.159.069.178a47.441,47.441,0,0,1,13.566,17.991c2.905,6.77,4.67,13.963,6.421,21.118l4,16.34c2.552-.43,5.032-1.558,7.622-1.447,6.644.285,7.531,6.942,8.5,12.135a90.068,90.068,0,0,1,1.1,18.91c-.07,2.678-.926,5.945-3.213,7.342a16,16,0,0,1-8.8,2.32,4.56,4.56,0,0,1-1.612-.277c-2.1-.877-3.719-2.947-5.729-4.081-2.582-1.456-5.347-2.394-8.006-3.671a22.046,22.046,0,0,1-9.194-8.973,48.366,48.366,0,0,1-4.64-12.144c-3.035-11.537-5.794-23.612-6.771-35.52a11.869,11.869,0,0,1-3.242-4.683C148.549,245.593,150.346,244.765,150.562,242.788Z" transform="translate(-131.159 -115.535)" fill="#f79d26"/>
                    <path id="Path_20352" data-name="Path 20352" d="M188.732,192.09c-.188,3.208-.586,6.481-.557,9.695.019,2.112-.691,5.182.34,7.049a7.306,7.306,0,0,0,2.593,2.367,55.631,55.631,0,0,0,8.325,4.763,18.623,18.623,0,0,0,9.353,1.641c1.8-7.034-1.315-14.136-.738-21.226a16.993,16.993,0,0,0-7.243-4.2,46.64,46.64,0,0,0-7.951-1.553C191.881,190.5,189.638,191.711,188.732,192.09Z" transform="translate(-124.38 -120.85)" fill="#ffb3ae"/>
                    <path id="Path_20353" data-name="Path 20353" d="M205.2,270.912q-7.775-9.238-16.409-17.7c-7.269-.1-14.688-.492-21.2,2.745-.509.253-1.064.6-1.149,1.162-.157,1.041.56,1.982.923,2.971a.623.623,0,0,0,.746.516l7.36-.009a18.305,18.305,0,0,1,1.432,5.112c-2.2,2.33-4.193,3.842-5.91,6.551,2.364,3.128,5.412,6.322,8.926,8.057,2.291-2.179,5.128-3.8,7.419-5.974a9.409,9.409,0,0,1,1.7-1.384,4.7,4.7,0,0,1,.989-.432c3.462.571,7.083,1.043,10.545,1.614a11.548,11.548,0,0,0,4.923.1C205.5,273.218,205.855,271.689,205.2,270.912Z" transform="translate(-128.031 -110.247)" fill="#ffb3ae"/>
                    <path id="Path_20354" data-name="Path 20354" d="M243.76,266.914c-.557-.582-4.621-.086-5.5-.09q-2.991-.01-5.981.062-5.961.146-11.909.647c-3.368.287-6.653,1.179-9.972,1.345-4.167.209-8.371.127-12.536-.069a1.836,1.836,0,0,0-1.1.177c-.606.394-.53,1.295-.343,1.993,1.523,5.7,6.708,8.751,11.323,11.929,2.335,1.608,6.295,2,9.036,2.691q5.23,1.31,10.546,2.236a147.273,147.273,0,0,0,20.952,2.123,74.941,74.941,0,0,0-1.206-15.069C246.537,272.017,245.777,269.026,243.76,266.914Z" transform="translate(-122.968 -107.96)" fill="#34a9ea"/>
                    <path id="Path_20355" data-name="Path 20355" d="M181.547,300.672a34.814,34.814,0,0,1-2.05-5.332,19.444,19.444,0,0,1-.856-10.568c1.089-5.2,4.182-9.89,9.518-10.637a314.337,314.337,0,0,0,45.251-9.725c4.2-5.986,9.137-10.281,13.69-15.991,1.759-2.2,3.819-4.24,5.14-6.75a68.612,68.612,0,0,1,17.109,1.061,7.96,7.96,0,0,1,2.64,4.971,6.2,6.2,0,0,1-1.887,4.643,170.916,170.916,0,0,1,2.561,17.433,6.207,6.207,0,0,1-.128,2.326,5.2,5.2,0,0,1-.8,1.419,29.766,29.766,0,0,1-4.081,4.58A5.394,5.394,0,0,1,264,274.261c-4.37-.153-7.663.065-11.558,1.633l-7.407,2.979c-18.709,7.525-33.36,22.159-53.55,25.846a11.423,11.423,0,0,1-7.616-1.434A7.168,7.168,0,0,1,181.547,300.672Z" transform="translate(-126.024 -112.217)" fill="#ffb3ae"/>
                    <path id="Path_20356" data-name="Path 20356" d="M178,177.121a10.913,10.913,0,0,0-3.663-1.615,3.711,3.711,0,0,0-3.622,1.216,4.759,4.759,0,0,0-.421,3.758,20.97,20.97,0,0,0,4.834,9.324c2.313,2.677,5.456,3.244,7.167,6.343,5.851,10.6,18.978,20.1,30.379,16.013a27.353,27.353,0,0,0,14.457-12.551,25.977,25.977,0,0,0,3.138-9.388c.413-3.532-.9-7.027-.836-10.579a99.339,99.339,0,0,0-2.036-21.875c-1.491-7.226-8.156-12.671-15.166-14.97s-14.674-1.834-21.853-.134a21.407,21.407,0,0,0-7.717,3.119c-3.706,2.674-5.7,7.131-6.862,11.552C174.093,163.822,173.667,172,178,177.121Z" transform="translate(-127.407 -129.227)" fill="#ffb3ae"/>
                    <path id="Path_20357" data-name="Path 20357" d="M180.893,182.965c.047-.339-3.007-2.842-3.453-3.325a8.668,8.668,0,0,0-4.412-2.557c.269-7.681-2.039-15.278-.129-22.906.73-2.919,2.973-5.015,5.392-6.635a60.564,60.564,0,0,1,7.478-4.278c2.6-1.251,5.443-1.954,8.035-3.165,2.7-1.261,5.276-2.75,8.1-3.828,1.779-.681,3.079-1.772,4.747-2.6,1.782-.881,3.6-1.706,5.316-2.706a18.4,18.4,0,0,1,.456,8.575c-.055.254-.731.856-.885.649.069.092,4.522-1.211,5-1.3a35.209,35.209,0,0,1,5.136-.543,41.075,41.075,0,0,1,5.337.24c1.406.139,2.765-.249,4.214-.076-.9,4.329-5.894,7.763-9.713,9.382,4.239,1.006,7.7,2.917,11.477,5.091a11.889,11.889,0,0,1-6.366,4.041c-2.85-2.8-5.489-5.375-8.339-8.18-1.533-1.508-8.423-.951-10.494-.937a55.805,55.805,0,0,0-11.421,1.261c-5.467,1.182-11.894,4.249-13.439,10.125C180.929,166.882,181.961,175.222,180.893,182.965Z" transform="translate(-127.063 -130.967)" fill="#08539a"/>
                  </g>
                </g>
              </g>
            </g>
            <path id="Rectangle_1670" data-name="Rectangle 1670" d="M141.623,313.232h87.634a4.737,4.737,0,0,1,4.737,4.738h0a4.737,4.737,0,0,1-4.737,4.737H141.623a4.737,4.737,0,0,1-4.737-4.737h0A4.737,4.737,0,0,1,141.623,313.232Z" transform="translate(-108.463 -50.329)" fill="#f0f4f7"/>
            <path id="Rectangle_1681" data-name="Rectangle 1681" d="M163.223,95.2h87.635a4.737,4.737,0,0,1,4.737,4.738h0a4.737,4.737,0,0,1-4.737,4.737H163.223a4.737,4.737,0,0,1-4.737-4.737h0A4.737,4.737,0,0,1,163.223,95.2Z" transform="translate(-104.8 -87.305)" fill="#f0f4f7"/>
            <path id="Rectangle_1673" data-name="Rectangle 1673" d="M141.623,344.958H280.574a4.738,4.738,0,0,1,4.738,4.738h0a4.738,4.738,0,0,1-4.738,4.737H141.623a4.737,4.737,0,0,1-4.737-4.737h0A4.737,4.737,0,0,1,141.623,344.958Z" transform="translate(-108.463 -44.949)" fill="#f0f4f7"/>
            <path id="Rectangle_1674" data-name="Rectangle 1674" d="M141.623,361.159h20.526a4.737,4.737,0,0,1,4.737,4.737h0a4.737,4.737,0,0,1-4.737,4.737H141.623a4.737,4.737,0,0,1-4.737-4.737h0A4.737,4.737,0,0,1,141.623,361.159Z" transform="translate(-108.463 -42.201)" fill="#f0f4f7"/>
            <path id="Rectangle_1671" data-name="Rectangle 1671" d="M141.623,328.758h23.684a4.736,4.736,0,0,1,4.737,4.737h0a4.736,4.736,0,0,1-4.737,4.737H141.623a4.736,4.736,0,0,1-4.737-4.737h0A4.736,4.736,0,0,1,141.623,328.758Z" transform="translate(-108.463 -47.696)" fill="#f0f4f7"/>
            <path id="Rectangle_1675" data-name="Rectangle 1675" d="M125.422,328.758h0a4.736,4.736,0,0,1,4.737,4.737h0a4.736,4.736,0,0,1-4.737,4.737h0a4.736,4.736,0,0,1-4.737-4.737h0A4.736,4.736,0,0,1,125.422,328.758Z" transform="translate(-111.211 -47.696)" fill="#aabfcf"/>
            <path id="Rectangle_1676" data-name="Rectangle 1676" d="M125.422,313.232h0a4.737,4.737,0,0,1,4.737,4.738h0a4.737,4.737,0,0,1-4.737,4.737h0a4.737,4.737,0,0,1-4.737-4.737h0A4.737,4.737,0,0,1,125.422,313.232Z" transform="translate(-111.211 -50.329)" fill="#aabfcf"/>
            <path id="Rectangle_1677" data-name="Rectangle 1677" d="M125.422,344.958h0a4.737,4.737,0,0,1,4.737,4.738h0a4.737,4.737,0,0,1-4.737,4.737h0a4.737,4.737,0,0,1-4.737-4.737h0A4.737,4.737,0,0,1,125.422,344.958Z" transform="translate(-111.211 -44.949)" fill="#aabfcf"/>
            <path id="Rectangle_1679" data-name="Rectangle 1679" d="M275.952,344.958h0a4.738,4.738,0,0,1,4.737,4.738h0a4.737,4.737,0,0,1-4.737,4.737h0a4.737,4.737,0,0,1-4.737-4.737h0A4.738,4.738,0,0,1,275.952,344.958Z" transform="translate(-85.683 -44.949)" fill="#0796e5"/>
            <path id="Rectangle_1678" data-name="Rectangle 1678" d="M125.422,361.159h0a4.737,4.737,0,0,1,4.737,4.737h0a4.737,4.737,0,0,1-4.737,4.737h0a4.737,4.737,0,0,1-4.737-4.737h0A4.737,4.737,0,0,1,125.422,361.159Z" transform="translate(-111.211 -42.201)" fill="#aabfcf"/>
            <path id="Rectangle_1680" data-name="Rectangle 1680" d="M275.952,361.159h0a4.737,4.737,0,0,1,4.737,4.737h0a4.737,4.737,0,0,1-4.737,4.737h0a4.737,4.737,0,0,1-4.737-4.737h0A4.737,4.737,0,0,1,275.952,361.159Z" transform="translate(-85.683 -42.201)" fill="#0796e5"/>
            <path id="Rectangle_1672" data-name="Rectangle 1672" d="M175.374,328.758h30a4.737,4.737,0,0,1,4.737,4.737h0a4.737,4.737,0,0,1-4.737,4.737h-30a4.736,4.736,0,0,1-4.737-4.737h0A4.736,4.736,0,0,1,175.374,328.758Z" transform="translate(-102.74 -47.696)" fill="#09a262"/>
          </g>
          <path id="Path_20358" data-name="Path 20358" d="M80.046,221.327a23.319,23.319,0,0,1,4.94-12.156.372.372,0,0,0-.275-.6c-4.208-.111-9-3.075-11.963-6.38a.352.352,0,0,0-.615.271,18.2,18.2,0,0,1-4.579,13.295.372.372,0,0,0,.227.619,21.364,21.364,0,0,1,11.678,5.178A.349.349,0,0,0,80.046,221.327Z" transform="translate(-36.513 -13.685)" fill="#fff"/>
          <path id="Path_20359" data-name="Path 20359" d="M332.27,201.561a15.256,15.256,0,0,1,3.233-7.956.243.243,0,0,0-.18-.393c-2.753-.074-5.889-2.013-7.829-4.175a.23.23,0,0,0-.4.177,11.912,11.912,0,0,1-3,8.7.244.244,0,0,0,.15.4,13.988,13.988,0,0,1,7.643,3.388A.229.229,0,0,0,332.27,201.561Z" transform="translate(6.999 -15.908)" fill="#fff"/>
          <path id="Path_20360" data-name="Path 20360" d="M262.182,73.258a10.329,10.329,0,0,1,2.189-5.387.165.165,0,0,0-.122-.266,8.263,8.263,0,0,1-5.3-2.828.155.155,0,0,0-.271.12,8.06,8.06,0,0,1-2.03,5.891.166.166,0,0,0,.1.275,9.462,9.462,0,0,1,5.174,2.294A.154.154,0,0,0,262.182,73.258Z" transform="translate(-4.436 -36.977)" fill="#fff"/>
          <path id="Path_20361" data-name="Path 20361" d="M322.046,158.327a23.32,23.32,0,0,1,4.94-12.156.372.372,0,0,0-.275-.6c-4.208-.111-9-3.075-11.963-6.38a.352.352,0,0,0-.615.271,18.2,18.2,0,0,1-4.579,13.295.372.372,0,0,0,.227.619,21.364,21.364,0,0,1,11.678,5.178A.349.349,0,0,0,322.046,158.327Z" transform="translate(4.528 -24.369)" fill="#fff"/>
          <path id="Path_20362" data-name="Path 20362" d="M99.676,290.11a22.377,22.377,0,0,1,2.984-10.492c.12-.2,0-.519-.206-.534-2.866-.228-6.215-2.972-8.334-5.958-.166-.234-.436-.09-.409.218a17.919,17.919,0,0,1-2.7,11.5.374.374,0,0,0,.174.55,14.654,14.654,0,0,1,8.1,4.9C99.437,290.47,99.659,290.365,99.676,290.11Z" transform="translate(-32.529 -1.653)" fill="#fff"/>
          <path id="Path_20363" data-name="Path 20363" d="M150.392,76.5a14.209,14.209,0,0,1,7.682-2,.227.227,0,0,0,.2-.35c-1.429-2.071-1.67-5.454-1.1-8.076a.21.21,0,0,0-.35-.2,11.115,11.115,0,0,1-8.111,2.584.228.228,0,0,0-.222.333,12.748,12.748,0,0,1,1.588,7.505A.208.208,0,0,0,150.392,76.5Z" transform="translate(-22.776 -36.79)" fill="#fff"/>
          <path id="Path_20364" data-name="Path 20364" d="M97.392,118.5a14.209,14.209,0,0,1,7.682-2,.227.227,0,0,0,.2-.35c-1.429-2.071-1.67-5.454-1.1-8.076a.21.21,0,0,0-.35-.2,11.114,11.114,0,0,1-8.111,2.584.228.228,0,0,0-.222.333,12.748,12.748,0,0,1,1.588,7.505A.208.208,0,0,0,97.392,118.5Z" transform="translate(-31.764 -29.668)" fill="#fff"/>
          <path id="Path_20365" data-name="Path 20365" d="M303.392,284.5a14.209,14.209,0,0,1,7.682-2,.227.227,0,0,0,.2-.35c-1.429-2.071-1.67-5.454-1.1-8.076a.21.21,0,0,0-.35-.2,11.114,11.114,0,0,1-8.111,2.584.228.228,0,0,0-.222.333,12.748,12.748,0,0,1,1.588,7.505A.208.208,0,0,0,303.392,284.5Z" transform="translate(3.171 -1.516)" fill="#fff"/>
          <circle id="Ellipse_580" data-name="Ellipse 580" cx="2.924" cy="2.924" r="2.924" transform="translate(46.784 123.977)" fill="#fff"/>
          <circle id="Ellipse_581" data-name="Ellipse 581" cx="4.094" cy="4.094" r="4.094" transform="translate(39.766 240.936)" fill="#fff"/>
          <circle id="Ellipse_582" data-name="Ellipse 582" cx="4.094" cy="4.094" r="4.094" transform="translate(61.988 163.743)" fill="#fff"/>
          <circle id="Ellipse_583" data-name="Ellipse 583" cx="3.509" cy="3.509" r="3.509" transform="translate(300.585 156.725)" fill="#fff"/>
          <circle id="Ellipse_584" data-name="Ellipse 584" cx="3.509" cy="3.509" r="3.509" transform="translate(348.538 209.357)" fill="#fff"/>
          <circle id="Ellipse_585" data-name="Ellipse 585" cx="2.924" cy="2.924" r="2.924" transform="translate(318.129 229.24)" fill="#fff"/>
          <circle id="Ellipse_586" data-name="Ellipse 586" cx="2.924" cy="2.924" r="2.924" transform="translate(305.263 67.836)" fill="#fff"/>
          <circle id="Ellipse_587" data-name="Ellipse 587" cx="2.339" cy="2.339" r="2.339" transform="translate(163.743 14.035)" fill="#fff"/>
          <circle id="Ellipse_588" data-name="Ellipse 588" cx="2.924" cy="2.924" r="2.924" transform="translate(145.029 40.936)" fill="#fff"/>
          <circle id="Ellipse_589" data-name="Ellipse 589" cx="4.094" cy="4.094" r="4.094" transform="translate(216.374 36.257)" fill="#fff"/>
          <circle id="Ellipse_590" data-name="Ellipse 590" cx="1.754" cy="1.754" r="1.754" transform="translate(177.778 35.088)" fill="#fff"/>
          <circle id="Ellipse_591" data-name="Ellipse 591" cx="1.17" cy="1.17" r="1.17" transform="translate(217.544 17.544)" fill="#fff"/>
          <circle id="Ellipse_592" data-name="Ellipse 592" cx="2.339" cy="2.339" r="2.339" transform="translate(190.643 11.696)" fill="#fff"/>
          <circle id="Ellipse_593" data-name="Ellipse 593" cx="1.754" cy="1.754" r="1.754" transform="translate(254.971 46.784)" fill="#fff"/>
          <circle id="Ellipse_594" data-name="Ellipse 594" cx="2.339" cy="2.339" r="2.339" transform="translate(91.228 37.427)" fill="#fff"/>
          <circle id="Ellipse_595" data-name="Ellipse 595" cx="1.754" cy="1.754" r="1.754" transform="translate(287.719 42.105)" fill="#fff"/>
        </g>
      </g>
    </g>
    <rect id="Rectangle_2759" data-name="Rectangle 2759" width="400" height="450" transform="translate(2101 1604)" fill="none"/>
  </g>
</svg>
