<svg xmlns="http://www.w3.org/2000/svg" xmlns:xlink="http://www.w3.org/1999/xlink" width="400" height="450" viewBox="0 0 400 450">
  <defs>
    <clipPath id="clip-path">
      <path id="Path_20299" data-name="Path 20299" d="M360.844,76.067a184.5,184.5,0,0,0-252.7-7.782A182.993,182.993,0,0,0,46.189,194.632c-.266,3.835-.4,7.847-.4,11.93V436.284a11.78,11.78,0,0,0,11.78,11.78H403.132a11.781,11.781,0,0,0,11.78-11.78V206.562A183.272,183.272,0,0,0,360.844,76.067Z" transform="translate(-45.788 -22)" fill="none"/>
    </clipPath>
  </defs>
  <g id="Illustration-1" transform="translate(-2173 -1338)">
    <g id="Illustration-1-2" data-name="Illustration-1" transform="translate(2140.212 1326)">
      <g id="Group_5935" data-name="Group 5935" transform="translate(35.788 12)">
        <path id="Path_20297" data-name="Path 20297" d="M58.552,455.032a17.785,17.785,0,0,1-17.764-17.765V207.546c0-4.218.14-8.37.415-12.344A190.576,190.576,0,0,1,231.334,17,191.862,191.862,0,0,1,366.059,72.82a189.211,189.211,0,0,1,55.822,134.726v229.72a17.785,17.785,0,0,1-17.764,17.765Z" transform="translate(-34.804 -11.016)" fill="#27b3f7"/>
        <path id="Path_20298" data-name="Path 20298" d="M232.318,23.968A185.836,185.836,0,0,1,362.812,78.035a183.272,183.272,0,0,1,54.068,130.5V438.252a11.78,11.78,0,0,1-11.78,11.78H59.536a11.78,11.78,0,0,1-11.78-11.78V208.53c0-4.082.135-8.1.4-11.929A184.593,184.593,0,0,1,232.318,23.968m0-11.968a196.56,196.56,0,0,0-196.1,183.818c-.282,4.1-.426,8.376-.426,12.713V438.252A23.776,23.776,0,0,0,59.536,462H405.1a23.776,23.776,0,0,0,23.748-23.748V208.53A195.159,195.159,0,0,0,371.273,69.57,197.889,197.889,0,0,0,232.318,12Z" transform="translate(-35.788 -12)" fill="#fff"/>
      </g>
      <g id="Group_5945" data-name="Group 5945" transform="translate(47.756 23.968)">
        <g id="Group_5944" data-name="Group 5944" clip-path="url(#clip-path)">
          <g id="Group_5934" data-name="Group 5934" transform="translate(46.583 83.777)">
            <rect id="Rectangle_1651" data-name="Rectangle 1651" width="477.022" height="326.065" rx="12.109" fill="#e1f4fe"/>
            <g id="Group_5925" data-name="Group 5925" transform="translate(32.003 83.328)">
              <g id="Group_5936" data-name="Group 5936" transform="translate(0)">
                <rect id="Rectangle_74-7" data-name="Rectangle 74-7" width="188.393" height="63.402" rx="2.523" fill="#fff"/>
              </g>
              <g id="_3" data-name=" 3" transform="translate(6.642 42.872)">
                <g id="Info">
                  <path id="Rectangle_1653" data-name="Rectangle 1653" d="M144.94,199.969h52.533A4.227,4.227,0,0,1,201.7,204.2h0a4.227,4.227,0,0,1-4.227,4.227H144.94a4.227,4.227,0,0,1-4.226-4.227h0A4.226,4.226,0,0,1,144.94,199.969Z" transform="translate(-112.334 -196.95)" fill="#f0f4f7"/>
                  <g id="Group_5539" data-name="Group 5539" transform="translate(94.196 1.811)">
                    <path id="Rectangle_377" data-name="Rectangle 377" d="M201.142,198.96h10.869a5.434,5.434,0,0,1,5.434,5.435h0a5.434,5.434,0,0,1-5.434,5.435H201.142a5.435,5.435,0,0,1-5.435-5.435h0A5.435,5.435,0,0,1,201.142,198.96Z" transform="translate(-195.707 -198.96)" fill="#09a262"/>
                  </g>
                  <g id="Group_5230" data-name="Group 5230">
                    <g id="Group_4579" data-name="Group 4579">
                      <circle id="Ellipse_359" data-name="Ellipse 359" cx="7.246" cy="7.246" r="7.246" transform="translate(9.057)" fill="#aabfcf"/>
                      <circle id="Ellipse_570" data-name="Ellipse 570" cx="7.246" cy="7.246" r="7.246" fill="#d4dfe7"/>
                    </g>
                  </g>
                </g>
              </g>
              <g id="_1" data-name=" 1" transform="translate(0 6.038)">
                <g id="Info-2" transform="translate(94.8 1.812)">
                  <g id="conversation" transform="translate(68.836)">
                    <path id="Rectangle_416" data-name="Rectangle 416" d="M253.613,168.184h7.85a5.435,5.435,0,0,1,5.435,5.435h0a5.434,5.434,0,0,1-5.435,5.434h-7.85a5.434,5.434,0,0,1-5.435-5.434h0A5.435,5.435,0,0,1,253.613,168.184Z" transform="translate(-248.178 -168.184)" fill="#e0f2f1"/>
                    <path id="Path_905" data-name="Path 905" d="M254.233,169.193h8.453v8.453h-8.453Z" transform="translate(-246.986 -167.985)" fill="none"/>
                  </g>
                  <g id="attachment" transform="translate(45.89)">
                    <path id="Rectangle_416-2" data-name="Rectangle 416-2" d="M234.441,168.184h8.453a5.435,5.435,0,0,1,5.435,5.435h0a5.434,5.434,0,0,1-5.435,5.434h-8.453a5.434,5.434,0,0,1-5.435-5.434h0A5.435,5.435,0,0,1,234.441,168.184Z" transform="translate(-229.006 -168.184)" fill="#f3e5f5"/>
                  </g>
                  <g id="tagging" transform="translate(22.945)">
                    <path id="Rectangle_416-3" data-name="Rectangle 416-3" d="M215.269,168.184h8.453a5.435,5.435,0,0,1,5.435,5.435h0a5.434,5.434,0,0,1-5.435,5.434h-8.453a5.434,5.434,0,0,1-5.435-5.434h0A5.435,5.435,0,0,1,215.269,168.184Z" transform="translate(-209.834 -168.184)" fill="#e3f2fd"/>
                  </g>
                  <g id="subtask">
                    <path id="Rectangle_416-4" data-name="Rectangle 416-4" d="M196.1,168.184h8.453a5.435,5.435,0,0,1,5.435,5.435h0a5.434,5.434,0,0,1-5.435,5.434H196.1a5.434,5.434,0,0,1-5.435-5.434h0A5.435,5.435,0,0,1,196.1,168.184Z" transform="translate(-190.662 -168.184)" fill="#f8eae7"/>
                  </g>
                </g>
                <g id="code">
                  <path id="Rectangle_415" data-name="Rectangle 415" d="M111.451,166.67h44.08a7.247,7.247,0,0,1,7.245,7.247h0a7.246,7.246,0,0,1-7.245,7.245h-44.08V166.67Z" transform="translate(-111.451 -166.67)" fill="#0796e5"/>
                </g>
              </g>
              <path id="Rectangle_1652" data-name="Rectangle 1652" d="M120.422,184.833H224.883a3.926,3.926,0,0,1,3.925,3.926h0a3.925,3.925,0,0,1-3.925,3.924H120.422a3.925,3.925,0,0,1-3.926-3.924h0A3.926,3.926,0,0,1,120.422,184.833Z" transform="translate(-110.458 -157.057)" fill="#e2e9ef"/>
            </g>
            <g id="Group_5928" data-name="Group 5928" transform="translate(32.003 161.221)">
              <g id="Group_5937" data-name="Group 5937" transform="translate(0)">
                <rect id="Rectangle_74-8" data-name="Rectangle 74-8" width="188.393" height="63.402" rx="2.523" fill="#fff"/>
              </g>
              <g id="_3-2" data-name=" 3-2" transform="translate(6.642 42.872)">
                <g id="Info-3">
                  <path id="Rectangle_1653-2" data-name="Rectangle 1653-2" d="M144.94,265.054h52.533a4.226,4.226,0,0,1,4.227,4.226h0a4.227,4.227,0,0,1-4.227,4.227H144.94a4.226,4.226,0,0,1-4.226-4.227h0A4.226,4.226,0,0,1,144.94,265.054Z" transform="translate(-112.334 -262.034)" fill="#f0f4f7"/>
                  <g id="Group_5539-2" data-name="Group 5539-2" transform="translate(94.196 1.811)">
                    <path id="Rectangle_377-2" data-name="Rectangle 377-2" d="M201.142,264.044h10.869a5.434,5.434,0,0,1,5.434,5.435h0a5.434,5.434,0,0,1-5.434,5.435H201.142a5.435,5.435,0,0,1-5.435-5.435h0A5.435,5.435,0,0,1,201.142,264.044Z" transform="translate(-195.707 -264.044)" fill="#ff9800"/>
                  </g>
                  <g id="Group_5230-2" data-name="Group 5230-2">
                    <g id="Group_4579-2" data-name="Group 4579-2">
                      <circle id="Ellipse_359-2" data-name="Ellipse 359-2" cx="7.246" cy="7.246" r="7.246" transform="translate(9.057)" fill="#aabfcf"/>
                      <circle id="Ellipse_570-2" data-name="Ellipse 570-2" cx="7.246" cy="7.246" r="7.246" fill="#d4dfe7"/>
                    </g>
                  </g>
                </g>
              </g>
              <g id="_1-2" data-name=" 1-2" transform="translate(0 6.039)">
                <g id="Info-4" transform="translate(117.746 1.811)">
                  <g id="conversation-2" transform="translate(45.89)">
                    <path id="Rectangle_416-5" data-name="Rectangle 416-5" d="M253.613,233.268h7.85A5.435,5.435,0,0,1,266.9,238.7h0a5.435,5.435,0,0,1-5.435,5.435h-7.85a5.435,5.435,0,0,1-5.435-5.435h0A5.435,5.435,0,0,1,253.613,233.268Z" transform="translate(-248.178 -233.268)" fill="#e0f2f1"/>
                    <path id="Path_905-2" data-name="Path 905-2" d="M254.233,234.277h8.453v8.454h-8.453Z" transform="translate(-246.986 -233.069)" fill="none"/>
                  </g>
                  <g id="attachment-2" transform="translate(22.945)">
                    <path id="Rectangle_416-6" data-name="Rectangle 416-6" d="M234.441,233.268h8.453a5.435,5.435,0,0,1,5.435,5.435h0a5.435,5.435,0,0,1-5.435,5.435h-8.453a5.435,5.435,0,0,1-5.435-5.435h0A5.435,5.435,0,0,1,234.441,233.268Z" transform="translate(-229.006 -233.268)" fill="#f3e5f5"/>
                  </g>
                  <g id="tagging-2">
                    <path id="Rectangle_416-7" data-name="Rectangle 416-7" d="M215.269,233.268h8.453a5.435,5.435,0,0,1,5.435,5.435h0a5.435,5.435,0,0,1-5.435,5.435h-8.453a5.435,5.435,0,0,1-5.435-5.435h0A5.435,5.435,0,0,1,215.269,233.268Z" transform="translate(-209.834 -233.268)" fill="#e3f2fd"/>
                  </g>
                </g>
                <g id="code-2">
                  <path id="Rectangle_415-2" data-name="Rectangle 415-2" d="M111.451,231.755h44.08A7.246,7.246,0,0,1,162.776,239h0a7.246,7.246,0,0,1-7.245,7.245h-44.08V231.755Z" transform="translate(-111.451 -231.755)" fill="#0796e5"/>
                </g>
              </g>
              <path id="Rectangle_1652-2" data-name="Rectangle 1652-2" d="M120.422,249.918H270.774a3.924,3.924,0,0,1,3.924,3.924h0a3.925,3.925,0,0,1-3.924,3.925H120.422a3.926,3.926,0,0,1-3.926-3.925h0A3.925,3.925,0,0,1,120.422,249.918Z" transform="translate(-110.458 -222.142)" fill="#e2e9ef"/>
            </g>
            <g id="Group_5930" data-name="Group 5930" transform="translate(32.003 239.115)">
              <g id="Group_5938" data-name="Group 5938" transform="translate(0)">
                <rect id="Rectangle_74-9" data-name="Rectangle 74-9" width="188.393" height="63.402" rx="2.523" fill="#fff"/>
              </g>
              <g id="_3-3" data-name=" 3-3" transform="translate(6.642 42.872)">
                <g id="Info-5">
                  <path id="Rectangle_1653-3" data-name="Rectangle 1653-3" d="M144.94,330.138h52.533a4.226,4.226,0,0,1,4.227,4.226h0a4.227,4.227,0,0,1-4.227,4.227H144.94a4.226,4.226,0,0,1-4.226-4.227h0A4.226,4.226,0,0,1,144.94,330.138Z" transform="translate(-112.334 -327.119)" fill="#f0f4f7"/>
                  <g id="Group_5539-3" data-name="Group 5539-3" transform="translate(94.196 1.812)">
                    <path id="Rectangle_377-3" data-name="Rectangle 377-3" d="M201.142,329.129h10.869a5.434,5.434,0,0,1,5.434,5.434h0A5.434,5.434,0,0,1,212.011,340H201.142a5.435,5.435,0,0,1-5.435-5.435h0A5.434,5.434,0,0,1,201.142,329.129Z" transform="translate(-195.707 -329.129)" fill="#f55b5b"/>
                  </g>
                  <g id="Group_5230-3" data-name="Group 5230-3">
                    <g id="Group_4579-3" data-name="Group 4579-3">
                      <circle id="Ellipse_359-3" data-name="Ellipse 359-3" cx="7.246" cy="7.246" r="7.246" transform="translate(9.057)" fill="#aabfcf"/>
                      <circle id="Ellipse_570-3" data-name="Ellipse 570-3" cx="7.246" cy="7.246" r="7.246" fill="#d4dfe7"/>
                    </g>
                  </g>
                </g>
              </g>
              <g id="_1-3" data-name=" 1-3" transform="translate(0 6.038)">
                <g id="Info-6" transform="translate(140.691 1.811)">
                  <g id="conversation-3" transform="translate(22.945)">
                    <path id="Rectangle_416-8" data-name="Rectangle 416-8" d="M253.613,298.352h7.85a5.435,5.435,0,0,1,5.435,5.435h0a5.435,5.435,0,0,1-5.435,5.435h-7.85a5.435,5.435,0,0,1-5.435-5.435h0A5.435,5.435,0,0,1,253.613,298.352Z" transform="translate(-248.178 -298.352)" fill="#e0f2f1"/>
                    <path id="Path_905-3" data-name="Path 905-3" d="M254.233,299.361h8.453v8.454h-8.453Z" transform="translate(-246.986 -298.153)" fill="none"/>
                  </g>
                  <g id="tagging-3">
                    <path id="Rectangle_416-9" data-name="Rectangle 416-9" d="M234.441,298.352h8.453a5.435,5.435,0,0,1,5.435,5.435h0a5.435,5.435,0,0,1-5.435,5.435h-8.453a5.435,5.435,0,0,1-5.435-5.435h0A5.435,5.435,0,0,1,234.441,298.352Z" transform="translate(-229.006 -298.352)" fill="#e3f2fd"/>
                  </g>
                </g>
                <g id="code-3">
                  <path id="Rectangle_415-3" data-name="Rectangle 415-3" d="M111.451,296.839h44.08a7.246,7.246,0,0,1,7.245,7.245h0a7.246,7.246,0,0,1-7.245,7.247h-44.08V296.839Z" transform="translate(-111.451 -296.839)" fill="#0796e5"/>
                </g>
              </g>
              <path id="Rectangle_1652-3" data-name="Rectangle 1652-3" d="M120.422,315H224.883a3.925,3.925,0,0,1,3.925,3.924h0a3.926,3.926,0,0,1-3.925,3.926H120.422a3.926,3.926,0,0,1-3.926-3.926h0A3.925,3.925,0,0,1,120.422,315Z" transform="translate(-110.458 -287.226)" fill="#e2e9ef"/>
            </g>
            <g id="Group_5926" data-name="Group 5926" transform="translate(244.549 83.328)">
              <g id="Group_5939" data-name="Group 5939" transform="translate(0)">
                <rect id="Rectangle_74-10" data-name="Rectangle 74-10" width="188.393" height="63.402" rx="2.523" fill="#fff"/>
              </g>
              <g id="_3-4" data-name=" 3-4" transform="translate(6.642 42.872)">
                <g id="Info-7">
                  <path id="Rectangle_1653-4" data-name="Rectangle 1653-4" d="M322.535,199.969h52.533a4.226,4.226,0,0,1,4.226,4.227h0a4.227,4.227,0,0,1-4.226,4.227H322.535a4.227,4.227,0,0,1-4.227-4.227h0A4.227,4.227,0,0,1,322.535,199.969Z" transform="translate(-289.928 -196.95)" fill="#f0f4f7"/>
                  <g id="Group_5539-4" data-name="Group 5539-4" transform="translate(94.197 1.811)">
                    <path id="Rectangle_377-4" data-name="Rectangle 377-4" d="M378.736,198.96H389.6a5.435,5.435,0,0,1,5.435,5.435h0a5.435,5.435,0,0,1-5.435,5.435H378.736a5.434,5.434,0,0,1-5.434-5.435h0A5.434,5.434,0,0,1,378.736,198.96Z" transform="translate(-373.302 -198.96)" fill="#ff9800"/>
                  </g>
                  <g id="Group_5230-4" data-name="Group 5230-4">
                    <g id="Group_4579-4" data-name="Group 4579-4">
                      <circle id="Ellipse_359-4" data-name="Ellipse 359-4" cx="7.246" cy="7.246" r="7.246" transform="translate(9.057)" fill="#aabfcf"/>
                      <circle id="Ellipse_570-4" data-name="Ellipse 570-4" cx="7.246" cy="7.246" r="7.246" fill="#d4dfe7"/>
                    </g>
                  </g>
                </g>
              </g>
              <g id="_1-4" data-name=" 1-4" transform="translate(0 6.038)">
                <g id="Info-8" transform="translate(94.8 1.812)">
                  <g id="conversation-4" transform="translate(68.837)">
                    <path id="Rectangle_416-10" data-name="Rectangle 416-10" d="M431.207,168.184h7.85a5.435,5.435,0,0,1,5.435,5.435h0a5.434,5.434,0,0,1-5.435,5.434h-7.85a5.434,5.434,0,0,1-5.434-5.434h0A5.434,5.434,0,0,1,431.207,168.184Z" transform="translate(-425.773 -168.184)" fill="#e0f2f1"/>
                  </g>
                  <g id="attachment-3" transform="translate(45.892)">
                    <path id="Rectangle_416-11" data-name="Rectangle 416-11" d="M412.034,168.184h8.454a5.435,5.435,0,0,1,5.435,5.435h0a5.434,5.434,0,0,1-5.435,5.434h-8.454a5.434,5.434,0,0,1-5.433-5.434h0A5.434,5.434,0,0,1,412.034,168.184Z" transform="translate(-406.601 -168.184)" fill="#f3e5f5"/>
                  </g>
                  <g id="tagging-4" transform="translate(22.945)">
                    <path id="Rectangle_416-12" data-name="Rectangle 416-12" d="M392.863,168.184h8.454a5.434,5.434,0,0,1,5.434,5.435h0a5.434,5.434,0,0,1-5.434,5.434h-8.454a5.434,5.434,0,0,1-5.435-5.434h0A5.435,5.435,0,0,1,392.863,168.184Z" transform="translate(-387.428 -168.184)" fill="#e3f2fd"/>
                  </g>
                  <g id="subtask-2">
                    <path id="Rectangle_416-13" data-name="Rectangle 416-13" d="M373.691,168.184h8.454a5.434,5.434,0,0,1,5.434,5.435h0a5.434,5.434,0,0,1-5.434,5.434h-8.454a5.434,5.434,0,0,1-5.435-5.434h0A5.435,5.435,0,0,1,373.691,168.184Z" transform="translate(-368.256 -168.184)" fill="#f8eae7"/>
                  </g>
                </g>
                <g id="code-4">
                  <path id="Rectangle_415-4" data-name="Rectangle 415-4" d="M289.045,166.67h44.08a7.246,7.246,0,0,1,7.245,7.247h0a7.246,7.246,0,0,1-7.245,7.245h-44.08V166.67Z" transform="translate(-289.045 -166.67)" fill="#0796e5"/>
                </g>
              </g>
              <path id="Rectangle_1652-4" data-name="Rectangle 1652-4" d="M298.015,184.833H402.478a3.925,3.925,0,0,1,3.924,3.926h0a3.924,3.924,0,0,1-3.924,3.924H298.015a3.924,3.924,0,0,1-3.924-3.924h0A3.925,3.925,0,0,1,298.015,184.833Z" transform="translate(-288.052 -157.057)" fill="#e2e9ef"/>
            </g>
            <g id="Group_5929" data-name="Group 5929" transform="translate(244.549 202.885)">
              <g id="Group_5940" data-name="Group 5940" transform="translate(0)">
                <rect id="Rectangle_74-11" data-name="Rectangle 74-11" width="188.393" height="63.402" rx="2.523" fill="#fff"/>
              </g>
              <g id="_3-5" data-name=" 3-5" transform="translate(6.642 42.872)">
                <g id="Info-9">
                  <path id="Rectangle_1653-5" data-name="Rectangle 1653-5" d="M322.535,299.866h52.533a4.226,4.226,0,0,1,4.226,4.227h0a4.226,4.226,0,0,1-4.226,4.226H322.535a4.226,4.226,0,0,1-4.227-4.226h0A4.227,4.227,0,0,1,322.535,299.866Z" transform="translate(-289.928 -296.847)" fill="#f0f4f7"/>
                  <g id="Group_5539-5" data-name="Group 5539-5" transform="translate(94.197 1.812)">
                    <path id="Rectangle_377-5" data-name="Rectangle 377-5" d="M378.736,298.857H389.6a5.435,5.435,0,0,1,5.435,5.435h0a5.434,5.434,0,0,1-5.435,5.433H378.736a5.433,5.433,0,0,1-5.434-5.433h0A5.434,5.434,0,0,1,378.736,298.857Z" transform="translate(-373.302 -298.857)" fill="#09a262"/>
                  </g>
                  <g id="Group_5230-5" data-name="Group 5230-5">
                    <g id="Group_4579-5" data-name="Group 4579-5">
                      <circle id="Ellipse_359-5" data-name="Ellipse 359-5" cx="7.246" cy="7.246" r="7.246" transform="translate(9.057)" fill="#aabfcf"/>
                      <circle id="Ellipse_570-5" data-name="Ellipse 570-5" cx="7.246" cy="7.246" r="7.246" fill="#d4dfe7"/>
                    </g>
                  </g>
                </g>
              </g>
              <g id="_1-5" data-name=" 1-5" transform="translate(0 6.038)">
                <g id="Info-10" transform="translate(94.8 1.812)">
                  <g id="conversation-5" transform="translate(68.837)">
                    <path id="Rectangle_416-14" data-name="Rectangle 416-14" d="M431.207,268.081h7.85a5.434,5.434,0,0,1,5.435,5.434h0a5.435,5.435,0,0,1-5.435,5.435h-7.85a5.434,5.434,0,0,1-5.434-5.435h0A5.434,5.434,0,0,1,431.207,268.081Z" transform="translate(-425.773 -268.081)" fill="#e0f2f1"/>
                    <path id="Path_905-5" data-name="Path 905-5" d="M431.827,269.09h8.453v8.453h-8.453Z" transform="translate(-424.582 -267.882)" fill="none"/>
                  </g>
                  <g id="attachment-4" transform="translate(45.892)">
                    <path id="Rectangle_416-15" data-name="Rectangle 416-15" d="M412.034,268.081h8.454a5.434,5.434,0,0,1,5.435,5.434h0a5.435,5.435,0,0,1-5.435,5.435h-8.454a5.434,5.434,0,0,1-5.433-5.435h0A5.434,5.434,0,0,1,412.034,268.081Z" transform="translate(-406.601 -268.081)" fill="#f3e5f5"/>
                  </g>
                  <g id="tagging-5" transform="translate(22.945)">
                    <path id="Rectangle_416-16" data-name="Rectangle 416-16" d="M392.863,268.081h8.454a5.434,5.434,0,0,1,5.434,5.434h0a5.434,5.434,0,0,1-5.434,5.435h-8.454a5.435,5.435,0,0,1-5.435-5.435h0A5.434,5.434,0,0,1,392.863,268.081Z" transform="translate(-387.428 -268.081)" fill="#e3f2fd"/>
                  </g>
                  <g id="subtask-3">
                    <path id="Rectangle_416-17" data-name="Rectangle 416-17" d="M373.691,268.081h8.454a5.434,5.434,0,0,1,5.434,5.434h0a5.434,5.434,0,0,1-5.434,5.435h-8.454a5.435,5.435,0,0,1-5.435-5.435h0A5.434,5.434,0,0,1,373.691,268.081Z" transform="translate(-368.256 -268.081)" fill="#f8eae7"/>
                  </g>
                </g>
                <g id="code-5">
                  <path id="Rectangle_415-5" data-name="Rectangle 415-5" d="M289.045,266.567h44.08a7.246,7.246,0,0,1,7.245,7.245h0a7.246,7.246,0,0,1-7.245,7.247h-44.08V266.567Z" transform="translate(-289.045 -266.567)" fill="#0796e5"/>
                </g>
              </g>
              <path id="Rectangle_1652-5" data-name="Rectangle 1652-5" d="M298.015,284.73H402.478a3.924,3.924,0,0,1,3.924,3.926h0a3.924,3.924,0,0,1-3.924,3.924H298.015a3.924,3.924,0,0,1-3.924-3.924h0A3.924,3.924,0,0,1,298.015,284.73Z" transform="translate(-288.052 -256.954)" fill="#e2e9ef"/>
            </g>
            <rect id="Rectangle_1654" data-name="Rectangle 1654" width="188.393" height="32.003" rx="3.027" transform="translate(244.549 161.221)" fill="#80d2fb"/>
            <g id="Group_5943" data-name="Group 5943" transform="translate(96.24 118.75)">
              <g id="Group_5941" data-name="Group 5941" transform="translate(6.348 6.348)">
                <rect id="Rectangle_74-12" data-name="Rectangle 74-12" width="188.393" height="63.402" rx="2.523" fill="#0796e5"/>
              </g>
              <g id="Group_5931" data-name="Group 5931">
                <g id="Group_5942" data-name="Group 5942" transform="translate(0)">
                  <g id="Rectangle_74-12-2" data-name="Rectangle 74-12" fill="#fff" stroke="#0796e5" stroke-width="2">
                    <rect width="188.393" height="63.402" rx="2.523" stroke="none"/>
                    <rect x="-1" y="-1" width="190.393" height="65.402" rx="3.523" fill="none"/>
                  </g>
                </g>
                <g id="_3-6" data-name=" 3-6" transform="translate(6.642 42.872)">
                  <g id="Info-11">
                    <path id="Rectangle_1653-6" data-name="Rectangle 1653-6" d="M198.615,229.567h52.533a4.226,4.226,0,0,1,4.226,4.227h0a4.226,4.226,0,0,1-4.226,4.226H198.615a4.226,4.226,0,0,1-4.227-4.226h0A4.227,4.227,0,0,1,198.615,229.567Z" transform="translate(-166.008 -226.548)" fill="#f0f4f7"/>
                    <g id="Group_5539-6" data-name="Group 5539-6" transform="translate(94.197 1.812)">
                      <path id="Rectangle_377-6" data-name="Rectangle 377-6" d="M254.815,228.558h10.869a5.435,5.435,0,0,1,5.435,5.435h0a5.434,5.434,0,0,1-5.435,5.434H254.815a5.434,5.434,0,0,1-5.433-5.434h0A5.434,5.434,0,0,1,254.815,228.558Z" transform="translate(-249.382 -228.558)" fill="#ff2442"/>
                    </g>
                    <g id="Group_5230-6" data-name="Group 5230-6">
                      <g id="Group_4579-6" data-name="Group 4579-6">
                        <circle id="Ellipse_359-6" data-name="Ellipse 359-6" cx="7.246" cy="7.246" r="7.246" transform="translate(9.057)" fill="#aabfcf"/>
                        <circle id="Ellipse_570-6" data-name="Ellipse 570-6" cx="7.246" cy="7.246" r="7.246" fill="#d4dfe7"/>
                      </g>
                    </g>
                  </g>
                </g>
                <g id="_1-6" data-name=" 1-6" transform="translate(0 6.038)">
                  <g id="Info-12" transform="translate(117.746 1.812)">
                    <g id="conversation-6" transform="translate(45.892)">
                      <path id="Rectangle_416-18" data-name="Rectangle 416-18" d="M307.286,197.782h7.85a5.434,5.434,0,0,1,5.435,5.434h0a5.435,5.435,0,0,1-5.435,5.435h-7.85a5.434,5.434,0,0,1-5.434-5.435h0A5.433,5.433,0,0,1,307.286,197.782Z" transform="translate(-301.853 -197.782)" fill="#e0f2f1"/>
                      <path id="Path_905-6" data-name="Path 905-6" d="M307.907,198.791h8.453v8.453h-8.453Z" transform="translate(-300.661 -197.583)" fill="none"/>
                    </g>
                    <g id="attachment-5" transform="translate(22.946)">
                      <path id="Rectangle_416-19" data-name="Rectangle 416-19" d="M288.115,197.782h8.454A5.433,5.433,0,0,1,302,203.216h0a5.434,5.434,0,0,1-5.434,5.435h-8.454a5.434,5.434,0,0,1-5.434-5.435h0A5.433,5.433,0,0,1,288.115,197.782Z" transform="translate(-282.681 -197.782)" fill="#f3e5f5"/>
                    </g>
                    <g id="tagging-6">
                      <path id="Rectangle_416-20" data-name="Rectangle 416-20" d="M268.943,197.782H277.4a5.433,5.433,0,0,1,5.434,5.434h0a5.434,5.434,0,0,1-5.434,5.435h-8.454a5.435,5.435,0,0,1-5.435-5.435h0A5.434,5.434,0,0,1,268.943,197.782Z" transform="translate(-263.508 -197.782)" fill="#e3f2fd"/>
                    </g>
                  </g>
                  <g id="code-6">
                    <path id="Rectangle_415-6" data-name="Rectangle 415-6" d="M165.125,196.268H209.2a7.246,7.246,0,0,1,7.245,7.245h0a7.246,7.246,0,0,1-7.245,7.247h-44.08V196.268Z" transform="translate(-165.125 -196.268)" fill="#0796e5"/>
                  </g>
                </g>
                <path id="Rectangle_1652-6" data-name="Rectangle 1652-6" d="M174.1,214.431H324.448a3.924,3.924,0,0,1,3.924,3.924h0a3.924,3.924,0,0,1-3.924,3.926H174.1a3.925,3.925,0,0,1-3.924-3.926h0A3.924,3.924,0,0,1,174.1,214.431Z" transform="translate(-164.132 -186.655)" fill="#e2e9ef"/>
              </g>
            </g>
            <g id="Group_5932" data-name="Group 5932" transform="translate(32.003 60.986)">
              <path id="Rectangle_1655" data-name="Rectangle 1655" d="M115.375,142.957H219.838a3.925,3.925,0,0,1,3.924,3.926h0a3.924,3.924,0,0,1-3.924,3.924H115.375a3.924,3.924,0,0,1-3.924-3.924h0A3.925,3.925,0,0,1,115.375,142.957Z" transform="translate(-111.451 -142.957)" fill="#80d2fb"/>
              <path id="Rectangle_1656" data-name="Rectangle 1656" d="M258.157,142.957h9.662a3.925,3.925,0,0,1,3.924,3.926h0a3.924,3.924,0,0,1-3.924,3.924h-9.662a3.924,3.924,0,0,1-3.924-3.924h0A3.925,3.925,0,0,1,258.157,142.957Z" transform="translate(-83.35 -142.957)" fill="#80d2fb"/>
            </g>
            <g id="Group_5933" data-name="Group 5933" transform="translate(244.549 60.986)">
              <path id="Rectangle_1655-2" data-name="Rectangle 1655-2" d="M292.971,142.957H397.432a3.926,3.926,0,0,1,3.926,3.926h0a3.925,3.925,0,0,1-3.926,3.924H292.971a3.925,3.925,0,0,1-3.926-3.924h0A3.926,3.926,0,0,1,292.971,142.957Z" transform="translate(-289.045 -142.957)" fill="#80d2fb"/>
              <path id="Rectangle_1656-2" data-name="Rectangle 1656-2" d="M435.751,142.957h9.662a3.925,3.925,0,0,1,3.924,3.926h0a3.924,3.924,0,0,1-3.924,3.924h-9.662a3.924,3.924,0,0,1-3.924-3.924h0A3.925,3.925,0,0,1,435.751,142.957Z" transform="translate(-260.944 -142.957)" fill="#80d2fb"/>
            </g>
            <path id="Rectangle_1657" data-name="Rectangle 1657" d="M99.2,92H547.24a14.491,14.491,0,0,1,14.492,14.492v14.491H84.711V106.492A14.492,14.492,0,0,1,99.2,92Z" transform="translate(-84.711 -92)" fill="#0796e5"/>
          </g>
        </g>
      </g>
      <path id="Path_20300" data-name="Path 20300" d="M281.846,84.3a23.851,23.851,0,0,1,5.054-12.44.381.381,0,0,0-.281-.615c-4.3-.114-9.207-3.146-12.241-6.529a.359.359,0,0,0-.628.278,18.629,18.629,0,0,1-4.687,13.6.381.381,0,0,0,.233.633,21.861,21.861,0,0,1,11.949,5.3A.358.358,0,0,0,281.846,84.3Z" transform="translate(45.891 10.351)" fill="#fff"/>
      <path id="Path_20301" data-name="Path 20301" d="M67.846,188.3a23.851,23.851,0,0,1,5.054-12.44.381.381,0,0,0-.281-.615c-4.3-.114-9.207-3.146-12.241-6.529a.359.359,0,0,0-.628.278,18.629,18.629,0,0,1-4.687,13.6.381.381,0,0,0,.233.633,21.861,21.861,0,0,1,11.949,5.3A.358.358,0,0,0,67.846,188.3Z" transform="translate(3.774 30.819)" fill="#fff"/>
      <path id="Path_20302" data-name="Path 20302" d="M171.846,64.3a23.851,23.851,0,0,1,5.054-12.44.381.381,0,0,0-.281-.615c-4.3-.114-9.207-3.146-12.241-6.529a.359.359,0,0,0-.628.278,18.629,18.629,0,0,1-4.687,13.6.381.381,0,0,0,.233.633,21.861,21.861,0,0,1,11.949,5.3A.358.358,0,0,0,171.846,64.3Z" transform="translate(24.242 6.414)" fill="#fff"/>
      <path id="Path_20303" data-name="Path 20303" d="M190.976,81.443a13.71,13.71,0,0,1,7.108-3.006.22.22,0,0,0,.135-.365c-1.705-1.8-2.468-5.019-2.328-7.626a.207.207,0,0,0-.369-.142,10.71,10.71,0,0,1-7.431,3.63.219.219,0,0,0-.163.352,12.567,12.567,0,0,1,2.71,7.009A.206.206,0,0,0,190.976,81.443Z" transform="translate(29.933 11.459)" fill="#fff"/>
      <path id="Path_20304" data-name="Path 20304" d="M68.976,310.443a13.71,13.71,0,0,1,7.108-3.006.22.22,0,0,0,.135-.365c-1.705-1.8-2.468-5.019-2.328-7.626a.207.207,0,0,0-.369-.142,10.71,10.71,0,0,1-7.431,3.63.219.219,0,0,0-.163.352,12.567,12.567,0,0,1,2.71,7.009A.206.206,0,0,0,68.976,310.443Z" transform="translate(5.923 56.528)" fill="#fff"/>
      <circle id="Ellipse_571" data-name="Ellipse 571" cx="2.992" cy="2.992" r="2.992" transform="translate(269.419 71.84)" fill="#fff"/>
      <circle id="Ellipse_572" data-name="Ellipse 572" cx="2.992" cy="2.992" r="2.992" transform="translate(70.749 277.691)" fill="#fff"/>
      <circle id="Ellipse_573" data-name="Ellipse 573" cx="2.394" cy="2.394" r="2.394" transform="translate(76.733 142.452)" fill="#fff"/>
      <circle id="Ellipse_574" data-name="Ellipse 574" cx="2.394" cy="2.394" r="2.394" transform="translate(74.34 412.931)" fill="#fff"/>
      <circle id="Ellipse_575" data-name="Ellipse 575" cx="2.394" cy="2.394" r="2.394" transform="translate(136.574 77.824)" fill="#fff"/>
      <circle id="Ellipse_576" data-name="Ellipse 576" cx="2.394" cy="2.394" r="2.394" transform="translate(250.27 31.149)" fill="#fff"/>
      <circle id="Ellipse_577" data-name="Ellipse 577" cx="4.787" cy="4.787" r="4.787" transform="translate(67.159 318.383)" fill="#fff"/>
    </g>
    <rect id="Rectangle_2758" data-name="Rectangle 2758" width="400" height="450" transform="translate(2173 1338)" fill="none"/>
  </g>
</svg>
