<svg id="Group_663" data-name="Group 663" xmlns="http://www.w3.org/2000/svg" width="48" height="48" viewBox="0 0 48 48">
  <rect id="Rectangle_909" data-name="Rectangle 909" width="48" height="48" fill="none"/>
  <g id="wms-icon-claim" transform="translate(10.48 4)">
    <path id="Path_533" data-name="Path 533" d="M107,41.563V78.537a1.5,1.5,0,0,0,1.478,1.513h24.084a1.5,1.5,0,0,0,1.479-1.513v-29.7l-8.585-8.791H108.477A1.5,1.5,0,0,0,107,41.563Z" transform="translate(-107 -40.05)" fill="#949e15"/>
    <path id="Path_534" data-name="Path 534" d="M107,64.007c9-6.32,14.48-19,16.31-23.957H108.477A1.5,1.5,0,0,0,107,41.563Z" transform="translate(-107 -40.05)" fill="#bacc33"/>
    <path id="Path_535" data-name="Path 535" d="M302.83,48.841h8.585L302.83,40.05Z" transform="translate(-284.374 -40.05)" fill="#b8bc2b"/>
    <ellipse id="Ellipse_109" data-name="Ellipse 109" cx="2.975" cy="3.047" rx="2.975" ry="3.047" transform="translate(2.05 3.632)" fill="#fc442b"/>
    <rect id="Rectangle_145" data-name="Rectangle 145" width="1.099" height="4.263" rx="0.55" transform="translate(7.156 6.13) rotate(90)" fill="#fff"/>
    <rect id="Rectangle_146" data-name="Rectangle 146" width="1.073" height="4.365" rx="0.537" transform="translate(5.561 8.862) rotate(180)" fill="#fff"/>
    <rect id="Rectangle_147" data-name="Rectangle 147" width="1.099" height="10.211" rx="0.55" transform="translate(13.03 10.769) rotate(90)" fill="#fff"/>
    <rect id="Rectangle_148" data-name="Rectangle 148" width="1.099" height="5.964" rx="0.55" transform="translate(8.783 15.384) rotate(90)" fill="#fff"/>
    <rect id="Rectangle_149" data-name="Rectangle 149" width="1.099" height="2.21" rx="0.55" transform="translate(5.028 20) rotate(90)" fill="#fff"/>
    <rect id="Rectangle_150" data-name="Rectangle 150" width="1.099" height="1.815" rx="0.55" transform="translate(4.633 24.616) rotate(90)" fill="#fff"/>
    <rect id="Rectangle_151" data-name="Rectangle 151" width="1.099" height="1.856" rx="0.55" transform="translate(24.073 15.385) rotate(90)" fill="#fff"/>
    <rect id="Rectangle_152" data-name="Rectangle 152" width="1.099" height="2.053" rx="0.55" transform="translate(24.073 20) rotate(90)" fill="#fff"/>
    <rect id="Rectangle_153" data-name="Rectangle 153" width="1.099" height="6.103" rx="0.55" transform="translate(24.073 24.616) rotate(90)" fill="#fff"/>
    <rect id="Rectangle_154" data-name="Rectangle 154" width="1.099" height="5.569" rx="0.55" transform="translate(8.387 29.231) rotate(90)" fill="#fff"/>
    <rect id="Rectangle_155" data-name="Rectangle 155" width="1.099" height="4.263" rx="0.55" transform="translate(7.081 33.846) rotate(90)" fill="#fff"/>
    <rect id="Rectangle_156" data-name="Rectangle 156" width="1.099" height="7.052" rx="0.55" transform="translate(16.31 6.155) rotate(90)" fill="#fff"/>
    <rect id="Rectangle_157" data-name="Rectangle 157" width="1.059" height="5.369" rx="0.529" transform="translate(24.094 10.769) rotate(90)" fill="#fff"/>
    <rect id="Rectangle_158" data-name="Rectangle 158" width="1.099" height="9.583" rx="0.55" transform="translate(24.094 29.231) rotate(90)" fill="#fff"/>
    <rect id="Rectangle_159" data-name="Rectangle 159" width="1.099" height="10.597" rx="0.55" transform="translate(19.853 33.846) rotate(90)" fill="#fff"/>
    <rect id="Rectangle_160" data-name="Rectangle 160" width="3.26" height="6.439" rx="1.63" transform="translate(20.647 30.019)" fill="#3bb5e4"/>
    <path id="Path_536" data-name="Path 536" d="M141.479,354.775l6.539,1.914a4.547,4.547,0,0,0,2.124.1l5.035-.956a1.239,1.239,0,0,1,.358-.014l2.149.22v-5.009l-1.979-.623a3.727,3.727,0,0,0-2.1-.042l-5.035,1.375a1.084,1.084,0,0,0-.778,1.183l.019.152a.587.587,0,0,1-.181.5.556.556,0,0,1-.505.136l-5.07-1.158a1.082,1.082,0,0,0-.81.134l-.024.014a1.148,1.148,0,0,0-.482,1.332h0A1.121,1.121,0,0,0,141.479,354.775Z" transform="translate(-137.503 -320.299)" fill="#fed585"/>
    <path id="Path_537" data-name="Path 537" d="M216.5,378.26c-3.493,1.193-3.825.282-3.825.282h0a.576.576,0,0,1-.377.472h0A5.427,5.427,0,0,0,216.5,378.26Z" transform="translate(-202.376 -345.618)" fill="#e5ba6e"/>
    <path id="Path_560" data-name="Path 560" d="M0,0,8.851.105l.192,16.175L.192,16.175Z" transform="translate(16.404 11.626) rotate(45)" fill="#35770b"/>
    <path id="Path_538" data-name="Path 538" d="M166.79,171.5a18.439,18.439,0,0,0,13.155-8.59l-2.385-2.443Z" transform="translate(-161.155 -148.848)" fill="#478e19"/>
    <path id="Path_561" data-name="Path 561" d="M3.741,0c2.051-.024,3.7,1,3.685,2.3S5.736,4.655,3.685,4.68s-3.7-1-3.685-2.3S1.69.025,3.741,0Z" transform="translate(9.566 21.55) rotate(-45)" fill="#478e19"/>
    <path id="Path_539" data-name="Path 539" d="M222.79,224.352a18.154,18.154,0,0,0,5.061-3.451c-.992-.447-2.545.058-3.763,1.306A5.217,5.217,0,0,0,222.79,224.352Z" transform="translate(-211.877 -203.301)" fill="#59a528"/>
  </g>
</svg>
