<svg xmlns="http://www.w3.org/2000/svg" width="48" height="48" viewBox="0 0 48 48">
  <g id="Group_661" data-name="Group 661" transform="translate(0.23)">
    <rect id="Rectangle_909" data-name="Rectangle 909" width="48" height="48" transform="translate(-0.23)" fill="none"/>
    <g id="ico-overtime" transform="translate(6.082 4)">
      <ellipse id="Ellipse_99" data-name="Ellipse 99" cx="14.212" cy="14.554" rx="14.212" ry="14.554" transform="translate(3.783 3.874)" fill="#19ab4c"/>
      <g id="Group_106" data-name="Group 106">
        <path id="Path_479" data-name="Path 479" d="M17.995,36.878A18.248,18.248,0,0,1,0,18.428,18.229,18.229,0,0,1,17.995,0,18.229,18.229,0,0,1,35.99,18.428,18.248,18.248,0,0,1,17.995,36.878Zm0-34.523A15.909,15.909,0,0,0,2.3,18.428,15.909,15.909,0,0,0,17.995,34.5a15.909,15.909,0,0,0,15.7-16.074A15.9,15.9,0,0,0,17.995,2.354Z" fill="#fcc033"/>
      </g>
      <g id="Group_107" data-name="Group 107">
        <path id="Path_480" data-name="Path 480" d="M17.995,36.878A18.248,18.248,0,0,1,0,18.428,18.229,18.229,0,0,1,17.995,0,18.229,18.229,0,0,1,35.99,18.428,18.248,18.248,0,0,1,17.995,36.878Zm0-34.523A15.909,15.909,0,0,0,2.3,18.428,15.909,15.909,0,0,0,17.995,34.5a15.909,15.909,0,0,0,15.7-16.074A15.9,15.9,0,0,0,17.995,2.354Z" fill="#fcc033"/>
      </g>
      <path id="Path_481" data-name="Path 481" d="M37.913,83.858c-3.448-11-14.107-16.566-19.186-17.658a15.086,15.086,0,0,0-.627,4.259A14.374,14.374,0,0,0,32.312,85.013,13.971,13.971,0,0,0,37.913,83.858Z" transform="translate(-14.317 -52.031)" fill="#fc442b"/>
      <g id="Group_108" data-name="Group 108" transform="translate(5.601 5.736)">
        <path id="Path_482" data-name="Path 482" d="M82.457,30.075h0a.853.853,0,0,1-.857-.856V27.656a.849.849,0,0,1,.836-.856h.021a.849.849,0,0,1,.836.856v1.562A.835.835,0,0,1,82.457,30.075Z" transform="translate(-70.147 -26.8)" fill="#fff"/>
        <path id="Path_483" data-name="Path 483" d="M82.915,68.063h0a.826.826,0,0,1-.815-.835V62.135a.826.826,0,0,1,.815-.835h0a.826.826,0,0,1,.815.835v5.073A.845.845,0,0,1,82.915,68.063Z" transform="translate(-70.542 -53.916)" fill="#fff"/>
        <path id="Path_484" data-name="Path 484" d="M82,85.835h0A.826.826,0,0,1,82.815,85h3.03a.826.826,0,0,1,.815.835h0a.826.826,0,0,1-.815.835h-3.01A.817.817,0,0,1,82,85.835Z" transform="translate(-70.463 -72.543)" fill="#fff"/>
        <path id="Path_485" data-name="Path 485" d="M115.941,45.268h0a.888.888,0,0,1-.021-1.22l1.066-1.092a.819.819,0,0,1,1.191,0l.021.021a.867.867,0,0,1,0,1.22l-1.066,1.092A.838.838,0,0,1,115.941,45.268Z" transform="translate(-97.11 -39.297)" fill="#fff"/>
        <path id="Path_486" data-name="Path 486" d="M130.1,82.478h0a.854.854,0,0,1,.836-.878h1.526a.849.849,0,0,1,.836.856v.021a.849.849,0,0,1-.836.856h-1.526A.849.849,0,0,1,130.1,82.478Z" transform="translate(-108.51 -69.871)" fill="#fff"/>
        <path id="Path_487" data-name="Path 487" d="M116.6,115.947h0a.838.838,0,0,1,1.191-.021l1.066,1.092a.867.867,0,0,1,0,1.22l-.021.021a.819.819,0,0,1-1.191,0l-1.066-1.092A.932.932,0,0,1,116.6,115.947Z" transform="translate(-97.644 -96.663)" fill="#fff"/>
        <path id="Path_488" data-name="Path 488" d="M83.336,130.1h0a.853.853,0,0,1,.857.856v1.562a.849.849,0,0,1-.836.856h-.021a.849.849,0,0,1-.836-.856v-1.562A.849.849,0,0,1,83.336,130.1Z" transform="translate(-70.859 -107.991)" fill="#fff"/>
        <path id="Path_489" data-name="Path 489" d="M45.808,116.606h0a.887.887,0,0,1,.021,1.22l-1.066,1.092a.819.819,0,0,1-1.191,0l-.021-.021a.867.867,0,0,1,0-1.22l1.066-1.092A.878.878,0,0,1,45.808,116.606Z" transform="translate(-39.852 -97.193)" fill="#fff"/>
        <path id="Path_490" data-name="Path 490" d="M30,83.356h0a.854.854,0,0,1-.836.878H27.636a.849.849,0,0,1-.836-.856v-.021a.849.849,0,0,1,.836-.856h1.526A.835.835,0,0,1,30,83.356Z" transform="translate(-26.8 -70.578)" fill="#fff"/>
        <path id="Path_491" data-name="Path 491" d="M45.208,45.868h0a.838.838,0,0,1-1.191.021L42.951,44.8a.867.867,0,0,1,0-1.22l.021-.021a.819.819,0,0,1,1.191,0l1.066,1.092A.887.887,0,0,1,45.208,45.868Z" transform="translate(-39.377 -39.768)" fill="#fff"/>
      </g>
      <path id="Path_492" data-name="Path 492" d="M101.374,143.283l-.355-4.131L98.511,140.2l-1.9-3.66,2.278-.706-1.358-3.4a.4.4,0,0,0-.752.043L92.7,139.6a.424.424,0,0,0,.251.535l7.921,3.746A.425.425,0,0,0,101.374,143.283Z" transform="translate(-73.306 -103.901)" fill="#fff"/>
      <path id="Path_493" data-name="Path 493" d="M103.812,149.451l-4.661-2.568a.424.424,0,0,1-.251-.535l2.738-4.473a.4.4,0,0,1,.752-.043l1.923,7.042A.416.416,0,0,1,103.812,149.451Z" transform="translate(-78.21 -111.29)" fill="#fcc033"/>
    </g>
  </g>
</svg>
