<svg xmlns="http://www.w3.org/2000/svg" width="48" height="48" viewBox="0 0 48 48">
  <g id="Icon_Approval_24px" data-name="Icon / Approval / 24px" transform="translate(-295 -443)">
    <rect id="Rectangle_1525" data-name="Rectangle 1525" width="48" height="48" transform="translate(295 443)" fill="none"/>
    <g id="wms-icon-approval" transform="translate(299 452.697)">
      <path id="Path_14585" data-name="Path 14585" d="M.5,0H33.436a.567.567,0,0,1,.5.5V6.761a.55.55,0,0,1-.5.5H.5a.6.6,0,0,1-.5-.5V.5A.538.538,0,0,1,.5,0Z" transform="translate(2.182)" fill="#0796e5"/>
      <path id="Path_14584" data-name="Path 14584" d="M.5,0H37.8a.571.571,0,0,1,.5.5V7.695a.573.573,0,0,1-.5.5H.5a.543.543,0,0,1-.5-.5V.5A.546.546,0,0,1,.5,0Z" transform="translate(0 10.204)" fill="#0796e5"/>
      <path id="Path_14583" data-name="Path 14583" d="M.5,0H33.436a.548.548,0,0,1,.5.5V6.761a.528.528,0,0,1-.5.5H.5a.524.524,0,0,1-.5-.5V.5A.549.549,0,0,1,.5,0Z" transform="translate(2.182 21.341)" fill="#0796e5"/>
      <path id="Path_13888" data-name="Path 13888" d="M57.6,330.08H52.189a.5.5,0,0,0-.5.5v4.3A66.207,66.207,0,0,0,57.6,330.08Z" transform="translate(-49.508 -308.739)" fill="#27b3f7"/>
      <path id="Path_13889" data-name="Path 13889" d="M44.064,203.8H27.444a.494.494,0,0,0-.494.493v7.212a.494.494,0,0,0,.494.493H37.511a66.428,66.428,0,0,0,6.553-8.2Z" transform="translate(-26.95 -193.596)" fill="#27b3f7"/>
      <path id="Path_13890" data-name="Path 13890" d="M72.494,88.1h-20.3a.5.5,0,0,0-.5.5v6.266a.5.5,0,0,0,.5.5H68.984A54.6,54.6,0,0,0,72.494,88.1Z" transform="translate(-49.508 -88.1)" fill="#27b3f7"/>
      <rect id="Rectangle_1377" data-name="Rectangle 1377" width="1.871" height="17.813" rx="0.935" transform="translate(4.49 4.606) rotate(-90)" fill="#fff"/>
      <rect id="Rectangle_1378" data-name="Rectangle 1378" width="2.111" height="20.104" rx="1.056" transform="translate(2.604 15.397) rotate(-90)" fill="#fff"/>
      <rect id="Rectangle_1379" data-name="Rectangle 1379" width="1.871" height="17.813" rx="0.935" transform="translate(4.49 25.939) rotate(-90)" fill="#fff"/>
      <circle id="Ellipse_450" data-name="Ellipse 450" cx="5.091" cy="5.091" r="5.091" transform="translate(29.819 9.213)" fill="#09a262"/>
      <path id="Path_13891" data-name="Path 13891" d="M409.986,231.123h0a.594.594,0,0,0,.922-.009l2.753-3.21a.83.83,0,0,0-.008-1.058h0a.595.595,0,0,0-.923.009l-2.753,3.21A.829.829,0,0,0,409.986,231.123Z" transform="translate(-376.027 -214.413)" fill="#fff"/>
      <circle id="Ellipse_451" data-name="Ellipse 451" cx="3.127" cy="3.127" r="3.127" transform="translate(28.63 0.509)" fill="#ff2442"/>
      <path id="Path_13892" data-name="Path 13892" d="M368.895,114.546h0a.452.452,0,0,0,.679.065l2.263-2.061a.575.575,0,0,0,.073-.751h0a.452.452,0,0,0-.68-.064l-2.262,2.06A.573.573,0,0,0,368.895,114.546Z" transform="translate(-338.64 -109.536)" fill="#fff"/>
      <path id="Path_13893" data-name="Path 13893" d="M371.868,114.538h0a.452.452,0,0,1-.68.064l-2.261-2.062a.574.574,0,0,1-.072-.751h0a.451.451,0,0,1,.679-.064l2.261,2.062A.573.573,0,0,1,371.868,114.538Z" transform="translate(-338.603 -109.528)" fill="#fff"/>
      <path id="Path_13894" data-name="Path 13894" d="M393.147,244.286h0a.829.829,0,0,0-.007-1.058l-1.714-1.936a.595.595,0,0,0-.923.008h0a.829.829,0,0,0,.007,1.058l1.718,1.937a.594.594,0,0,0,.919-.009Z" transform="translate(-358.269 -227.585)" fill="#fff"/>
      <circle id="Ellipse_452" data-name="Ellipse 452" cx="3.127" cy="3.127" r="3.127" transform="translate(28.63 21.901)" fill="#b5b5b5"/>
      <rect id="Rectangle_1380" data-name="Rectangle 1380" width="1.183" height="3.302" rx="0.591" transform="translate(33.408 24.437) rotate(90)" fill="#fff"/>
    </g>
  </g>
</svg>
