<svg id="Group_659" data-name="Group 659" xmlns="http://www.w3.org/2000/svg" width="48" height="48" viewBox="0 0 48 48">
  <rect id="Rectangle_909" data-name="Rectangle 909" width="48" height="48" fill="none"/>
  <g id="ico-exceptional" transform="translate(7.037 4)">
    <path id="Path_439" data-name="Path 439" d="M0,1.509V38.491A1.49,1.49,0,0,0,1.473,40H25.578a1.49,1.49,0,0,0,1.473-1.509V8.777L18.458,0H1.473A1.5,1.5,0,0,0,0,1.509Z" fill="#fd8728"/>
    <path id="Path_440" data-name="Path 440" d="M0,23.977C9.017,17.646,14.486,4.96,16.316,0H1.473A1.5,1.5,0,0,0,0,1.509Z" fill="#fcc033"/>
    <path id="Path_441" data-name="Path 441" d="M82.7,8.8h8.593L82.7,0Z" transform="translate(-64.242)" fill="#ffac73"/>
    <g id="Group_104" data-name="Group 104" transform="translate(16.74 18.469)">
      <path id="Path_442" data-name="Path 442" d="M78.616,80.8H88.57a3.674,3.674,0,0,1,3.616,3.7V94.7a3.674,3.674,0,0,1-3.616,3.7H78.616A3.6,3.6,0,0,1,75,95.269V85.074C75,82.469,76.629,80.8,78.616,80.8Z" transform="translate(-75 -80.8)" fill="#19ab4c"/>
    </g>
    <path id="Path_443" data-name="Path 443" d="M87.142,80.8H78.616A3.674,3.674,0,0,0,75,84.5v8.731C80.424,92.457,85.647,87.314,87.142,80.8Z" transform="translate(-58.26 -62.331)" fill="#fcc033"/>
    <path id="Path_444" data-name="Path 444" d="M111.436,85.98h0a.55.55,0,0,1-.536-.549v-.983a.55.55,0,0,1,.536-.549h0a.55.55,0,0,1,.536.549v.983A.55.55,0,0,1,111.436,85.98Z" transform="translate(-86.147 -64.723)" fill="#fff"/>
    <path id="Path_445" data-name="Path 445" d="M111.536,108.643h0a.55.55,0,0,1-.536-.549v-3.246a.55.55,0,0,1,.536-.549h0a.55.55,0,0,1,.536.549v3.269A.53.53,0,0,1,111.536,108.643Z" transform="translate(-86.225 -80.46)" fill="#fff"/>
    <path id="Path_446" data-name="Path 446" d="M111.1,119.149h0a.55.55,0,0,1,.536-.549h1.942a.55.55,0,0,1,.536.549h0a.55.55,0,0,1-.536.549h-1.942A.55.55,0,0,1,111.1,119.149Z" transform="translate(-86.303 -91.491)" fill="#fff"/>
    <path id="Path_447" data-name="Path 447" d="M131.376,95.042h0a.576.576,0,0,1,0-.777l.67-.686a.544.544,0,0,1,.759,0h0a.576.576,0,0,1,0,.777l-.67.686A.544.544,0,0,1,131.376,95.042Z" transform="translate(-101.936 -72.071)" fill="#fff"/>
    <path id="Path_448" data-name="Path 448" d="M139.8,117.149h0a.55.55,0,0,1,.536-.549h.96a.55.55,0,0,1,.536.549h0a.55.55,0,0,1-.536.549h-.96A.535.535,0,0,1,139.8,117.149Z" transform="translate(-108.597 -89.949)" fill="#fff"/>
    <path id="Path_449" data-name="Path 449" d="M131.776,137.179h0a.544.544,0,0,1,.759,0l.67.686a.576.576,0,0,1,0,.777h0a.544.544,0,0,1-.759,0l-.67-.686A.576.576,0,0,1,131.776,137.179Z" transform="translate(-102.247 -105.705)" fill="#fff"/>
    <path id="Path_450" data-name="Path 450" d="M111.936,145.6h0a.55.55,0,0,1,.536.549v.983a.55.55,0,0,1-.536.549h0a.55.55,0,0,1-.536-.549v-.983A.55.55,0,0,1,111.936,145.6Z" transform="translate(-86.536 -112.32)" fill="#fff"/>
    <path id="Path_451" data-name="Path 451" d="M89.6,137.579h0a.576.576,0,0,1,0,.777l-.67.686a.544.544,0,0,1-.759,0h0a.576.576,0,0,1,0-.777l.67-.686A.543.543,0,0,1,89.6,137.579Z" transform="translate(-68.378 -106.014)" fill="#fff"/>
    <path id="Path_452" data-name="Path 452" d="M80.131,117.744h0a.55.55,0,0,1-.536.549h-.96a.55.55,0,0,1-.536-.549h0a.55.55,0,0,1,.536-.549h.96A.522.522,0,0,1,80.131,117.744Z" transform="translate(-60.668 -90.407)" fill="#fff"/>
    <path id="Path_453" data-name="Path 453" d="M16.863,27.494v-.069a.511.511,0,0,0-.513-.526H13.113a.511.511,0,0,0-.513.526v.069a.511.511,0,0,0,.513.526H16.35A.541.541,0,0,0,16.863,27.494Z" transform="translate(-9.788 -20.751)" fill="#fff"/>
    <path id="Path_454" data-name="Path 454" d="M16.863,47.694v-.069a.511.511,0,0,0-.513-.526H13.113a.511.511,0,0,0-.513.526v.069a.511.511,0,0,0,.513.526H16.35A.541.541,0,0,0,16.863,47.694Z" transform="translate(-9.788 -36.334)" fill="#fff"/>
    <path id="Path_455" data-name="Path 455" d="M16.863,67.894v-.069a.511.511,0,0,0-.513-.526H13.113a.511.511,0,0,0-.513.526v.069a.511.511,0,0,0,.513.526H16.35A.526.526,0,0,0,16.863,67.894Z" transform="translate(-9.788 -51.917)" fill="#fff"/>
    <path id="Path_456" data-name="Path 456" d="M16.863,88.094v-.069a.511.511,0,0,0-.513-.526H13.113a.511.511,0,0,0-.513.526v.069a.511.511,0,0,0,.513.526H16.35A.526.526,0,0,0,16.863,88.094Z" transform="translate(-9.788 -67.5)" fill="#fff"/>
    <path id="Path_457" data-name="Path 457" d="M16.863,108.294v-.069a.511.511,0,0,0-.513-.526H13.113a.511.511,0,0,0-.513.526v.069a.511.511,0,0,0,.513.526H16.35A.526.526,0,0,0,16.863,108.294Z" transform="translate(-9.788 -83.083)" fill="#fff"/>
    <path id="Path_458" data-name="Path 458" d="M16.863,128.494v-.069a.511.511,0,0,0-.513-.526H13.113a.511.511,0,0,0-.513.526v.069a.511.511,0,0,0,.513.526H16.35A.526.526,0,0,0,16.863,128.494Z" transform="translate(-9.788 -98.666)" fill="#fff"/>
    <path id="Path_459" data-name="Path 459" d="M16.863,148.694v-.069a.511.511,0,0,0-.513-.526H13.113a.511.511,0,0,0-.513.526v.069a.511.511,0,0,0,.513.526H16.35A.526.526,0,0,0,16.863,148.694Z" transform="translate(-9.788 -114.249)" fill="#fff"/>
    <path id="Path_460" data-name="Path 460" d="M48.553,27.494v-.069a.511.511,0,0,0-.513-.526H42.013a.511.511,0,0,0-.513.526v.069a.511.511,0,0,0,.513.526h6.049A.538.538,0,0,0,48.553,27.494Z" transform="translate(-32.237 -20.751)" fill="#fff"/>
    <path id="Path_461" data-name="Path 461" d="M45.763,47.694v-.069a.511.511,0,0,0-.513-.526H42.013a.511.511,0,0,0-.513.526v.069a.511.511,0,0,0,.513.526H45.25A.541.541,0,0,0,45.763,47.694Z" transform="translate(-32.237 -36.334)" fill="#fff"/>
    <path id="Path_462" data-name="Path 462" d="M51.99,67.894v-.069a.511.511,0,0,0-.513-.526H42.013a.511.511,0,0,0-.513.526v.069a.511.511,0,0,0,.513.526h9.464A.526.526,0,0,0,51.99,67.894Z" transform="translate(-32.237 -51.917)" fill="#fff"/>
    <path id="Path_463" data-name="Path 463" d="M51.99,47.694v-.069a.511.511,0,0,0-.513-.526H42.013a.511.511,0,0,0-.513.526v.069a.511.511,0,0,0,.513.526h9.464A.541.541,0,0,0,51.99,47.694Z" transform="translate(-32.237 -36.334)" fill="#fff"/>
    <path id="Path_464" data-name="Path 464" d="M45.763,88.094v-.069a.511.511,0,0,0-.513-.526H42.013a.511.511,0,0,0-.513.526v.069a.511.511,0,0,0,.513.526H45.25A.526.526,0,0,0,45.763,88.094Z" transform="translate(-32.237 -67.5)" fill="#fff"/>
    <path id="Path_465" data-name="Path 465" d="M47.906,108.294v-.069a.511.511,0,0,0-.513-.526H42.013a.511.511,0,0,0-.513.526v.069a.511.511,0,0,0,.513.526h5.4A.522.522,0,0,0,47.906,108.294Z" transform="translate(-32.237 -83.083)" fill="#fff"/>
    <path id="Path_466" data-name="Path 466" d="M47.906,88.094v-.069a.511.511,0,0,0-.513-.526H42.013a.511.511,0,0,0-.513.526v.069a.511.511,0,0,0,.513.526h5.4A.522.522,0,0,0,47.906,88.094Z" transform="translate(-32.237 -67.5)" fill="#fff"/>
    <path id="Path_467" data-name="Path 467" d="M47.906,128.494v-.069a.511.511,0,0,0-.513-.526H42.013a.511.511,0,0,0-.513.526v.069a.511.511,0,0,0,.513.526h5.4A.522.522,0,0,0,47.906,128.494Z" transform="translate(-32.237 -98.666)" fill="#fff"/>
    <path id="Path_468" data-name="Path 468" d="M47.906,148.694v-.069a.511.511,0,0,0-.513-.526H42.013a.511.511,0,0,0-.513.526v.069a.511.511,0,0,0,.513.526h5.4A.522.522,0,0,0,47.906,148.694Z" transform="translate(-32.237 -114.249)" fill="#fff"/>
    <path id="Path_469" data-name="Path 469" d="M45.763,128.494v-.069a.511.511,0,0,0-.513-.526H42.013a.511.511,0,0,0-.513.526v.069a.511.511,0,0,0,.513.526H45.25A.526.526,0,0,0,45.763,128.494Z" transform="translate(-32.237 -98.666)" fill="#fff"/>
    <path id="Path_470" data-name="Path 470" d="M45.763,148.694v-.069a.511.511,0,0,0-.513-.526H42.013a.511.511,0,0,0-.513.526v.069a.511.511,0,0,0,.513.526H45.25A.526.526,0,0,0,45.763,148.694Z" transform="translate(-32.237 -114.249)" fill="#fff"/>
    <path id="Path_471" data-name="Path 471" d="M89.2,95.442h0a.544.544,0,0,1-.759,0l-.67-.686a.576.576,0,0,1,0-.777h0a.544.544,0,0,1,.759,0l.67.686A.535.535,0,0,1,89.2,95.442Z" transform="translate(-68.067 -72.379)" fill="#fff"/>
  </g>
</svg>
