<svg xmlns="http://www.w3.org/2000/svg" width="48" height="48" viewBox="0 0 48 48">
  <g id="Group_5016" data-name="Group 5016" transform="translate(6051 4825)">
    <rect id="Rectangle_1333" data-name="Rectangle 1333" width="48" height="48" transform="translate(-6051 -4825)" fill="none"/>
    <g id="wms-icon-business-trip" transform="translate(-6047 -4819)">
      <path id="Path_13815" data-name="Path 13815" d="M344.858,362l-3.8,3.246.233.775h5.024a1.956,1.956,0,0,0,.787-.165Z" transform="translate(-313.979 -334.112)" fill="#fd8728" fill-rule="evenodd"/>
      <path id="Path_13816" data-name="Path 13816" d="M73.166,96.251,70.234,94.64a1.361,1.361,0,0,1-.329-2.132l.687-.721a1.36,1.36,0,0,1,.985-.422,1.376,1.376,0,0,1,.376.054l4.258,1.232,3.2-3.834-6.672-3.8a1.362,1.362,0,0,1-.3-2.134l1.28-1.316a1.359,1.359,0,0,1,1.378-.355l8.572,2.631L87.2,80.307V73.142a1.974,1.974,0,0,0-1.974-1.974H79.782V68.905a3.665,3.665,0,0,0-3.665-3.665H63.972a3.665,3.665,0,0,0-3.665,3.665v2.268H54.864a1.974,1.974,0,0,0-1.974,1.974V95.175a1.974,1.974,0,0,0,1.974,1.974H72.575A3.576,3.576,0,0,1,73.166,96.251ZM62.265,68.9a1.7,1.7,0,0,1,1.7-1.7H76.119a1.7,1.7,0,0,1,1.7,1.7v2.268H62.269Z" transform="translate(-52.89 -65.24)" fill="#fd8728" fill-rule="evenodd"/>
      <path id="Path_13817" data-name="Path 13817" d="M73.793,85.615l-1.048-.6a1.362,1.362,0,0,1-.305-2.134l1.28-1.316a1.359,1.359,0,0,1,1.378-.355L82.5,83.48a29.849,29.849,0,0,0,2.879-1.356L87.2,80.307V73.142a1.974,1.974,0,0,0-1.974-1.974H79.782V68.905a3.665,3.665,0,0,0-3.665-3.665H63.972a3.665,3.665,0,0,0-3.665,3.665v2.268H54.864a1.974,1.974,0,0,0-1.974,1.974v9C57.969,84.207,65.635,86.434,73.793,85.615ZM62.269,68.905a1.7,1.7,0,0,1,1.7-1.7H76.119a1.7,1.7,0,0,1,1.7,1.7v2.268H62.269Z" transform="translate(-52.89 -65.24)" fill="#e06714" fill-rule="evenodd"/>
      <path id="Path_13818" data-name="Path 13818" d="M71.552,71.2H62.269V68.932a1.7,1.7,0,0,1,1.7-1.7H73.73c.3-.708.558-1.365.785-1.959H63.972a3.665,3.665,0,0,0-3.665,3.665V71.2H54.864a1.974,1.974,0,0,0-1.974,1.974v17.63C62.095,86.417,68.047,77.962,71.552,71.2Z" transform="translate(-52.89 -65.267)" fill="#e06714" fill-rule="evenodd"/>
      <path id="Path_13819" data-name="Path 13819" d="M71.552,71.2H62.269V68.932a1.7,1.7,0,0,1,1.7-1.7H73.73c.3-.708.558-1.365.785-1.959H63.972a3.665,3.665,0,0,0-3.665,3.665V71.2H54.864a1.974,1.974,0,0,0-1.974,1.974v9A52.2,52.2,0,0,0,61.5,84.852,50.828,50.828,0,0,0,71.552,71.2Z" transform="translate(-52.89 -65.267)" fill="#c4570c" fill-rule="evenodd"/>
      <path id="Path_13820" data-name="Path 13820" d="M265.424,221.726l-4.26,4.355a1.128,1.128,0,0,0-.268,1.128l2.759,8.685-1.306,1.293-4.006-6.879a1.128,1.128,0,0,0-1.7-.288l-4.129,3.528a1.128,1.128,0,0,0-.347,1.18l1.323,4.4-.713.7-1.786-3.171a1.128,1.128,0,0,0-.788-.556,1.1,1.1,0,0,0-.188-.017,1.128,1.128,0,0,0-.738.275l-.142.123c-.019.016-.037.033-.054.05a1.967,1.967,0,0,1-1.2.574.478.478,0,0,1-.36-.145,1.071,1.071,0,0,0-.125-.129c-.029-.025-.055-.05-.076-.071-.3-.341.066-1.128.45-1.526.018-.018.035-.037.051-.055l.123-.146a1.128,1.128,0,0,0-.319-1.718l-3.19-1.753.688-.721,4.406,1.274a1.128,1.128,0,0,0,1.177-.36l3.483-4.168a1.128,1.128,0,0,0-.307-1.7l-4.1-2.331-.033-.019-2.789-1.587,1.286-1.326,8.708,2.67a1.128,1.128,0,0,0,1.128-.282l4.3-4.3a3.108,3.108,0,0,1,2.138-1.029,1.946,1.946,0,0,1,1.363.539C266.611,218.972,266.756,220.346,265.424,221.726Z" transform="translate(-226.43 -203.354)" fill="#0f7ac1"/>
      <path id="Path_13821" data-name="Path 13821" d="M290.289,218.258a1.946,1.946,0,0,0-1.363-.539,3.108,3.108,0,0,0-2.138,1.029l-4.3,4.3a1.127,1.127,0,0,1-1.128.282l-8.7-2.674-1.28,1.323,2.784,1.59.032.019,4.1,2.331a1.128,1.128,0,0,1,.551.778,1.09,1.09,0,0,1,.017.234c6.5-2.278,9.933-5.842,11.659-8.393A1.966,1.966,0,0,0,290.289,218.258Z" transform="translate(-250.848 -203.39)" fill="#1ba0ea"/>
      <path id="Path_13822" data-name="Path 13822" d="M121.385,274.24c0,2.908-5.263,9.773-5.263,9.773s-5.263-6.87-5.263-9.773a5.265,5.265,0,1,1,10.53,0Z" transform="translate(-105.412 -249.829)" fill="#fc442b" fill-rule="evenodd"/>
      <path id="Path_13823" data-name="Path 13823" d="M116.1,269a5.263,5.263,0,0,0-5.263,5.263,10.156,10.156,0,0,0,1.5,4.076,49.455,49.455,0,0,0,7.5-7.788A5.248,5.248,0,0,0,116.1,269Z" transform="translate(-105.394 -249.851)" fill="#dd2b19" fill-rule="evenodd"/>
      <circle id="Ellipse_444" data-name="Ellipse 444" cx="2.279" cy="2.279" r="2.279" transform="translate(8.43 22.24)" fill="#fff"/>
    </g>
  </g>
</svg>
