<svg xmlns="http://www.w3.org/2000/svg" width="120" height="120" viewBox="0 0 120 120">
  <g id="img-1" transform="translate(-885 -226)">
    <rect id="Rectangle_3667" data-name="Rectangle 3667" width="120" height="120" transform="translate(885 226)" fill="none"/>
    <g id="img-illustration-1" transform="translate(151.354 -1213.397)">
      <g id="Group_166" data-name="Group 166" transform="translate(735.646 1445.369)">
        <g id="Group_41" data-name="Group 41" transform="translate(24.097 25.128)">
          <g id="Group_40" data-name="Group 40">
            <g id="Group_39" data-name="Group 39">
              <path id="Path_49" data-name="Path 49" d="M1092.892,1847.312a41.5,41.5,0,0,1-46.467,41.165l-.219-.027q-1.123-.142-2.226-.342a41.467,41.467,0,1,1,48.912-40.8Z" transform="translate(-1009.964 -1805.848)" fill="#bfc6d9"/>
            </g>
          </g>
        </g>
        <g id="Group_51" data-name="Group 51" transform="translate(60.716 78.583)">
          <g id="Group_46" data-name="Group 46">
            <g id="Group_45" data-name="Group 45">
              <g id="Group_44" data-name="Group 44">
                <g id="Group_43" data-name="Group 43">
                  <g id="Group_42" data-name="Group 42">
                    <path id="Path_50" data-name="Path 50" d="M1389.962,2379.117c.437,7.112,4.808,10.886,10.224,10.585q1.123-.141,2.227-.342a15.576,15.576,0,0,0,4.449-1.934c9.8-6.1,10.265-19.858,19.143-26.872-3.55,1.935-8.37,2.877-13.338,3.84-8.935,1.731-18.348,3.528-21.7,11.284A15.03,15.03,0,0,0,1389.962,2379.117Z" transform="translate(-1389.962 -2360.554)" fill="#14244d"/>
                  </g>
                </g>
              </g>
            </g>
          </g>
          <g id="Group_50" data-name="Group 50" transform="translate(0.444 3.841)">
            <g id="Group_49" data-name="Group 49">
              <g id="Group_48" data-name="Group 48">
                <g id="Group_47" data-name="Group 47">
                  <path id="Path_51" data-name="Path 51" d="M1395.411,2419.482c2.864,5.364,11.288.7,14.107-2.051,4.529-4.422,6.112-11.035,7.311-17.024-8.935,1.732-18.348,3.528-21.7,11.284C1394.393,2414.4,1394.279,2417.361,1395.411,2419.482Z" transform="translate(-1394.568 -2400.407)" fill="#141835"/>
                </g>
              </g>
            </g>
          </g>
        </g>
        <g id="Group_54" data-name="Group 54" transform="translate(43.806 66.592)" opacity="0.2" style="mix-blend-mode: multiply;isolation: isolate">
          <g id="Group_53" data-name="Group 53">
            <g id="Group_52" data-name="Group 52">
              <path id="Path_52" data-name="Path 52" d="M1277.705,2236.122a41.475,41.475,0,0,1-25.106,38.113l-38.113-38.113Z" transform="translate(-1214.486 -2236.122)" fill="#578cca"/>
            </g>
          </g>
        </g>
        <g id="Group_143" data-name="Group 143" transform="translate(0 9.686)">
          <g id="Group_84" data-name="Group 84" transform="translate(15.123)">
            <g id="Group_70" data-name="Group 70">
              <g id="Group_69" data-name="Group 69">
                <g id="Group_68" data-name="Group 68">
                  <path id="Path_57" data-name="Path 57" d="M1017.713,1667.791v34.722H916.836v-34.722a21.66,21.66,0,0,1,2.242-9.62,22.137,22.137,0,0,1,3.577-5.206,22.9,22.9,0,0,1,16.689-7.357H995.22a22.718,22.718,0,0,1,20.9,14.017l.009.024a21.681,21.681,0,0,1,1.58,8.143Z" transform="translate(-916.836 -1645.607)" fill="#2b427c"/>
                </g>
              </g>
            </g>
            <g id="Group_73" data-name="Group 73" transform="translate(0 0)">
              <g id="Group_72" data-name="Group 72">
                <g id="Group_71" data-name="Group 71">
                  <path id="Path_58" data-name="Path 58" d="M962.272,1667.792v34.722H916.836v-34.722a21.724,21.724,0,0,1,4.072-12.676,23.068,23.068,0,0,1,34.71-3.01A21.856,21.856,0,0,1,962.272,1667.792Z" transform="translate(-916.836 -1645.608)" fill="#1f316b"/>
                </g>
              </g>
            </g>
            <g id="Group_76" data-name="Group 76" transform="translate(45.436 31.014)">
              <g id="Group_75" data-name="Group 75">
                <g id="Group_74" data-name="Group 74">
                  <rect id="Rectangle_11" data-name="Rectangle 11" width="55.441" height="25.892" fill="#1f316b"/>
                </g>
              </g>
            </g>
            <g id="Group_83" data-name="Group 83" transform="translate(45.436 56.906)">
              <g id="Group_79" data-name="Group 79">
                <g id="Group_78" data-name="Group 78">
                  <g id="Group_77" data-name="Group 77">
                    <path id="Path_59" data-name="Path 59" d="M1398.332,2236.122v41.166a42.056,42.056,0,0,1-10.005,0v-41.166Z" transform="translate(-1388.327 -2236.122)" fill="#14244d"/>
                  </g>
                </g>
              </g>
              <g id="Group_82" data-name="Group 82" transform="translate(0 0)">
                <g id="Group_81" data-name="Group 81">
                  <g id="Group_80" data-name="Group 80">
                    <rect id="Rectangle_12" data-name="Rectangle 12" width="10.005" height="7.053" fill="#141835"/>
                  </g>
                </g>
              </g>
            </g>
          </g>
          <g id="Group_93" data-name="Group 93" transform="translate(95.206 47.234)">
            <g id="Group_88" data-name="Group 88">
              <g id="Group_87" data-name="Group 87">
                <g id="Group_86" data-name="Group 86">
                  <g id="Group_85" data-name="Group 85">
                    <path id="Path_60" data-name="Path 60" d="M1754.6,2142.129a.477.477,0,0,1,.477-.477v-.427a.477.477,0,0,1,0-.954v-.427a.477.477,0,0,1,0-.955v-.427a.477.477,0,0,1,0-.954v-.427a.477.477,0,0,1,0-.954v-.369h-.37v.007a.477.477,0,1,1-.954,0s0,0,0-.007h-.427s0,0,0,.007a.477.477,0,0,1-.954,0s0,0,0-.007h-.428a.057.057,0,0,1,0,.007.477.477,0,0,1-.954,0,.049.049,0,0,1,0-.007h-.427s0,0,0,.007a.477.477,0,0,1-.954,0s0,0,0-.007h-.427s0,0,0,.007a.477.477,0,0,1-.954,0s0,0,0-.007h-.37v.369a.477.477,0,1,1,0,.954v.427a.477.477,0,1,1,0,.954v.427a.477.477,0,0,1,0,.955v.427a.477.477,0,1,1,0,.954v.427a.477.477,0,1,1,0,.954v.37h.37a.477.477,0,0,1,.954,0h.427a.477.477,0,0,1,.954,0h.427a.477.477,0,0,1,.954,0h.427a.477.477,0,0,1,.954,0h.427a.477.477,0,1,1,.954,0h.37v-.37A.477.477,0,0,1,1754.6,2142.129Z" transform="translate(-1747.858 -2135.757)" fill="#fff"/>
                  </g>
                </g>
              </g>
            </g>
            <g id="Group_92" data-name="Group 92" transform="translate(10.89)">
              <g id="Group_91" data-name="Group 91">
                <g id="Group_90" data-name="Group 90">
                  <g id="Group_89" data-name="Group 89">
                    <path id="Path_61" data-name="Path 61" d="M1867.607,2142.129a.477.477,0,0,1,.477-.477v-.427a.477.477,0,0,1,0-.954v-.427a.477.477,0,0,1,0-.955v-.427a.477.477,0,1,1,0-.954v-.427a.477.477,0,0,1,0-.954v-.369h-.37s0,0,0,.007a.477.477,0,0,1-.954,0s0,0,0-.007h-.428a.057.057,0,0,1,0,.007.477.477,0,1,1-.954,0s0,0,0-.007h-.428s0,0,0,.007a.477.477,0,0,1-.954,0s0,0,0-.007h-.427s0,0,0,.007a.477.477,0,0,1-.954,0s0,0,0-.007h-.427a.036.036,0,0,1,0,.007.477.477,0,0,1-.954,0s0,0,0-.007h-.37v.369a.477.477,0,1,1,0,.954v.427a.477.477,0,1,1,0,.954v.427a.477.477,0,0,1,0,.955v.427a.477.477,0,1,1,0,.954v.427a.477.477,0,1,1,0,.954v.37h.37a.477.477,0,0,1,.954,0h.427a.477.477,0,0,1,.954,0H1864a.477.477,0,0,1,.954,0h.427a.477.477,0,1,1,.954,0h.427a.477.477,0,0,1,.954,0h.37v-.37A.477.477,0,0,1,1867.607,2142.129Z" transform="translate(-1860.865 -2135.757)" fill="#fff"/>
                  </g>
                </g>
              </g>
            </g>
          </g>
          <g id="Group_109" data-name="Group 109" transform="translate(30.833 25.648)">
            <g id="Group_96" data-name="Group 96">
              <g id="Group_95" data-name="Group 95">
                <g id="Group_94" data-name="Group 94">
                  <rect id="Rectangle_13" data-name="Rectangle 13" width="29.726" height="21.949" fill="#fff"/>
                </g>
              </g>
            </g>
            <g id="Group_99" data-name="Group 99" transform="translate(6.408 3.646)">
              <g id="Group_98" data-name="Group 98">
                <g id="Group_97" data-name="Group 97">
                  <path id="Path_62" data-name="Path 62" d="M1154.272,1950.557h-7.2c-.392,0-.709-.217-.709-.484h0c0-.266.318-.483.709-.483h7.2c.391,0,.709.216.709.483h0C1154.981,1950.341,1154.664,1950.557,1154.272,1950.557Z" transform="translate(-1146.358 -1949.591)" fill="#121e3d"/>
                </g>
              </g>
            </g>
            <g id="Group_102" data-name="Group 102" transform="translate(6.408 11.401)">
              <g id="Group_101" data-name="Group 101">
                <g id="Group_100" data-name="Group 100">
                  <path id="Path_63" data-name="Path 63" d="M1165.747,2031.031h-18.906a.483.483,0,0,1-.483-.483h0a.483.483,0,0,1,.483-.483h18.906a.483.483,0,0,1,.483.483h0A.483.483,0,0,1,1165.747,2031.031Z" transform="translate(-1146.358 -2030.065)" fill="#121e3d"/>
                </g>
              </g>
            </g>
            <g id="Group_105" data-name="Group 105" transform="translate(6.408 9.1)">
              <g id="Group_104" data-name="Group 104">
                <g id="Group_103" data-name="Group 103">
                  <path id="Path_64" data-name="Path 64" d="M1165.747,2007.155h-18.906a.483.483,0,0,1-.483-.483h0a.483.483,0,0,1,.483-.483h18.906a.483.483,0,0,1,.483.483h0A.483.483,0,0,1,1165.747,2007.155Z" transform="translate(-1146.358 -2006.189)" fill="#121e3d"/>
                </g>
              </g>
            </g>
            <g id="Group_108" data-name="Group 108" transform="translate(6.408 13.702)">
              <g id="Group_107" data-name="Group 107">
                <g id="Group_106" data-name="Group 106">
                  <path id="Path_65" data-name="Path 65" d="M1165.747,2054.906h-18.906a.483.483,0,0,1-.483-.483h0a.483.483,0,0,1,.483-.483h18.906a.483.483,0,0,1,.483.483h0A.483.483,0,0,1,1165.747,2054.906Z" transform="translate(-1146.358 -2053.94)" fill="#121e3d"/>
                </g>
              </g>
            </g>
          </g>
          <g id="Group_112" data-name="Group 112" transform="translate(19.195 0)" opacity="0.2" style="mix-blend-mode: multiply;isolation: isolate">
            <g id="Group_111" data-name="Group 111">
              <g id="Group_110" data-name="Group 110">
                <path id="Path_66" data-name="Path 66" d="M993.8,1652.106a23.067,23.067,0,0,0-34.71,3.01l41.364,35.609v-22.933A21.856,21.856,0,0,0,993.8,1652.106Z" transform="translate(-959.092 -1645.608)" fill="#121e3d"/>
              </g>
            </g>
          </g>
          <g id="Group_142" data-name="Group 142" transform="translate(0 0)">
            <g id="Group_141" data-name="Group 141">
              <path id="Path_77" data-name="Path 77" d="M820.825,1668.187a22.021,22.021,0,0,0-1.821-8.8,22.482,22.482,0,0,0-4.955-7.177,23.033,23.033,0,0,0-7.334-4.829,23.595,23.595,0,0,0-19.8.869,23.1,23.1,0,0,0-8.1,7.022,22.106,22.106,0,0,0-4.149,12.919v29.42H759.905v4.907h60.92Zm-42.573,0a18.541,18.541,0,0,1,3.482-10.835,19.5,19.5,0,0,1,6.834-5.926,19.94,19.94,0,0,1,9.178-2.232,19.624,19.624,0,0,1,13.8,5.578,18.626,18.626,0,0,1,5.695,13.415v29.42H778.252Z" transform="translate(-759.905 -1645.608)" fill="#12204d"/>
            </g>
          </g>
          <text id="mail" transform="translate(86.63 35.224)" fill="#fff" font-size="15" font-family="Poppins-SemiBold, Poppins" font-weight="600"><tspan x="-17" y="0">mail</tspan></text>
        </g>
        <circle id="Ellipse_6" data-name="Ellipse 6" cx="14.117" cy="14.117" r="14.117" transform="translate(87.765)" fill="#ff3755"/>
        <g id="Group_164" data-name="Group 164" transform="translate(94.934 5.36)">
          <g id="Group_155" data-name="Group 155" transform="translate(0 1.72)">
            <g id="Group_154" data-name="Group 154">
              <g id="Group_153" data-name="Group 153">
                <g id="Group_152" data-name="Group 152">
                  <path id="Path_79" data-name="Path 79" d="M1785.655,1604.722v-3.3a5.616,5.616,0,0,0-5.616-5.616h0a5.616,5.616,0,0,0-5.616,5.616v3.3c0,1.795-.492,2.48-1.422,4.015h14.077C1786.146,1607.2,1785.655,1606.516,1785.655,1604.722Z" transform="translate(-1773 -1595.806)" fill="#fff"/>
                </g>
              </g>
            </g>
          </g>
          <g id="Group_159" data-name="Group 159" transform="translate(4.919 15.394)">
            <g id="Group_158" data-name="Group 158">
              <g id="Group_157" data-name="Group 157">
                <g id="Group_156" data-name="Group 156">
                  <path id="Path_80" data-name="Path 80" d="M1810.35,1695.868h0a2.119,2.119,0,0,1-2.12-2.12h4.239A2.12,2.12,0,0,1,1810.35,1695.868Z" transform="translate(-1808.23 -1693.748)" fill="#fff"/>
                </g>
              </g>
            </g>
          </g>
          <g id="Group_163" data-name="Group 163" transform="translate(5.318 0)">
            <g id="Group_162" data-name="Group 162">
              <g id="Group_161" data-name="Group 161">
                <g id="Group_160" data-name="Group 160">
                  <path id="Path_81" data-name="Path 81" d="M1812.811,1583.485a1.72,1.72,0,1,0,1.72,1.72A1.721,1.721,0,0,0,1812.811,1583.485Zm0,2.753a1.033,1.033,0,1,1,1.034-1.033A1.033,1.033,0,0,1,1812.811,1586.238Z" transform="translate(-1811.091 -1583.485)" fill="#fff"/>
                </g>
              </g>
            </g>
          </g>
        </g>
      </g>
    </g>
  </g>
</svg>
