<svg xmlns="http://www.w3.org/2000/svg" width="120" height="120" viewBox="0 0 120 120">
  <g id="img-2" transform="translate(-1212 -405)">
    <rect id="Rectangle_3668" data-name="Rectangle 3668" width="120" height="120" transform="translate(1212 405)" fill="none"/>
    <g id="img-illustration-2" transform="translate(-1526.357 -431.063)">
      <path id="Path_16" data-name="Path 16" d="M2831.8,1083.557H2811.17l.084-3.67s-7.041-3.815-10.67-6.235c-2.684-1.79-4.5-1.943-4.5-7.942l36.374-9.9Z" transform="translate(-30.758 -141.733)" fill="#eef2f6"/>
      <path id="Path_17" data-name="Path 17" d="M2831.8,1083.557H2811.17l.084-3.67s-7.041-3.815-10.67-6.235c-2.684-1.79-4.5-1.943-4.5-7.942l36.374-9.9Z" transform="translate(-30.758 -141.733)" fill="#a9bcd0"/>
      <g id="Group_8" data-name="Group 8" transform="translate(2764.601 913.118)">
        <path id="Path_18" data-name="Path 18" d="M2831.159,1082.5h-22.085l.091-3.97c-1.534-.84-7.214-3.974-10.337-6.057-.356-.238-.7-.447-1.029-.649-2.423-1.478-3.793-2.574-3.793-7.9v-.555l37.848-10.305Zm-20.6-1.452h19.181l.615-26.069-34.893,9.5c.084,4.27,1.175,4.935,3.092,6.1.344.21.7.426,1.079.68,3.56,2.374,10.543,6.163,10.613,6.2l.39.212Z" transform="translate(-2794.006 -1053.068)" fill="#12204d"/>
      </g>
      <path id="Path_19" data-name="Path 19" d="M2774.637,953.458a4.181,4.181,0,0,1-5.428,2.351l-15.649-6.365a4.181,4.181,0,0,1-2.35-5.427h0a4.178,4.178,0,0,1,5.428-2.352l15.644,6.365a4.185,4.185,0,0,1,2.354,5.429Z" transform="translate(-1.356 -67.243)" fill="#fdfdfd"/>
      <path id="Path_20" data-name="Path 20" d="M2782.706,1044.188a3.627,3.627,0,0,1-4.707,2.04l-3.953-1.536a3.625,3.625,0,0,1-2.04-4.7h0a3.621,3.621,0,0,1,4.706-2.039l3.957,1.535a3.623,3.623,0,0,1,2.037,4.7Z" transform="translate(-14.92 -129.941)" fill="#fdfdfd"/>
      <path id="Path_21" data-name="Path 21" d="M2785.545,1017a3.98,3.98,0,0,1-5.166,2.238l-6.1-2.385a3.986,3.986,0,0,1-2.242-5.169h0a3.983,3.983,0,0,1,5.17-2.237l6.106,2.385a3.981,3.981,0,0,1,2.237,5.168Z" transform="translate(-14.92 -111.371)" fill="#fdfdfd"/>
      <path id="Path_22" data-name="Path 22" d="M2789.53,988.277a4.178,4.178,0,0,1-5.427,2.351l-9.706-3.836a4.186,4.186,0,0,1-2.352-5.429h0a4.185,4.185,0,0,1,5.43-2.35l9.7,3.835a4.179,4.179,0,0,1,2.35,5.428Z" transform="translate(-14.919 -91.555)" fill="#fdfdfd"/>
      <g id="Group_9" data-name="Group 9" transform="translate(2748.832 873.398)">
        <path id="Path_23" data-name="Path 23" d="M2769.393,955.475a4.9,4.9,0,0,1-1.808-.348l-15.655-6.368a4.909,4.909,0,0,1,3.619-9.127L2771.2,946a4.917,4.917,0,0,1,2.756,6.367h0a4.92,4.92,0,0,1-4.563,3.107Zm-15.651-14.738a3.459,3.459,0,0,0-1.272,6.675l15.656,6.368a3.455,3.455,0,0,0,4.479-1.945,3.465,3.465,0,0,0-1.946-4.487l-15.651-6.368A3.431,3.431,0,0,0,2753.743,940.737Z" transform="translate(-2748.832 -939.284)" fill="#12204d"/>
      </g>
      <g id="Group_10" data-name="Group 10" transform="translate(2756.105 907.023)">
        <path id="Path_24" data-name="Path 24" d="M2777.97,1045.851a4.325,4.325,0,0,1-1.593-.3l-3.949-1.534a4.351,4.351,0,1,1,3.2-8.094l3.951,1.533a4.349,4.349,0,0,1,2.449,5.648h0A4.364,4.364,0,0,1,2777.97,1045.851Zm-3.952-8.789a2.9,2.9,0,0,0-1.061,5.6l3.95,1.534a2.908,2.908,0,0,0,3.769-1.63h0a2.9,2.9,0,0,0-1.629-3.761l-3.953-1.534A2.919,2.919,0,0,0,2774.017,1037.062Z" transform="translate(-2769.669 -1035.609)" fill="#12204d"/>
      </g>
      <g id="Group_11" data-name="Group 11" transform="translate(2756.109 897.067)">
        <path id="Path_25" data-name="Path 25" d="M2780.493,1018.891a4.7,4.7,0,0,1-1.732-.333l-6.1-2.384a4.708,4.708,0,1,1,3.459-8.756l6.1,2.383a4.707,4.707,0,0,1,2.648,6.111h0a4.716,4.716,0,0,1-4.376,2.979Zm-6.1-10.352a3.255,3.255,0,0,0-1.2,6.284l6.1,2.384a3.256,3.256,0,0,0,4.228-1.828h0a3.255,3.255,0,0,0-1.828-4.226l-6.1-2.384A3.241,3.241,0,0,0,2774.39,1008.539Z" transform="translate(-2769.679 -1007.087)" fill="#12204d"/>
      </g>
      <g id="Group_12" data-name="Group 12" transform="translate(2756.108 886.44)">
        <path id="Path_26" data-name="Path 26" d="M2784.293,990.3a4.9,4.9,0,0,1-1.809-.348l-9.706-3.835a4.909,4.909,0,1,1,3.613-9.128l9.7,3.835a4.912,4.912,0,0,1-1.8,9.477Zm-9.7-12.2a3.456,3.456,0,0,0-1.278,6.67l9.706,3.836a3.451,3.451,0,0,0,4.485-1.943h0a3.461,3.461,0,0,0-1.942-4.486l-9.7-3.835A3.436,3.436,0,0,0,2774.591,978.1Z" transform="translate(-2769.677 -976.645)" fill="#12204d"/>
      </g>
      <rect id="Rectangle_5" data-name="Rectangle 5" width="46.416" height="92.819" rx="6" transform="translate(2761.757 838.063)" fill="#12204d"/>
      <path id="Path_27" data-name="Path 27" d="M2829.813,844.5h-6.342l-.638,1.578a2.772,2.772,0,0,1-2.569,1.732h-16.611a2.772,2.772,0,0,1-2.569-1.732l-.638-1.578h-6.362a3.8,3.8,0,0,0-3.8,3.8v80.732a3.8,3.8,0,0,0,3.8,3.8h35.729a3.8,3.8,0,0,0,3.8-3.8V848.3A3.8,3.8,0,0,0,2829.813,844.5Z" transform="translate(-26.984 -4.189)" fill="#bfc6d9"/>
      <path id="Path_28" data-name="Path 28" d="M2885.146,1010.063a8.052,8.052,0,0,0-1.174-4.186l-4.287-7.049a3.354,3.354,0,0,0-2.866-1.611H2861.74c-1.989,1.642,1.136,8.172,3.539,8.172s7.03.239,7.03.239l1.608,7.463.2.572c-4.541,3.76-8.976,11.153-8.976,17.378v4.025c0,6.516,2.082,17.369,12.261,17.145,5.507,0,7.741,1.79,7.741-4.726l-.009-2.856.009.024Z" transform="translate(-73.082 -103.596)" fill="#fdfdfd"/>
      <g id="Group_13" data-name="Group 13" transform="translate(2787.298 892.895)">
        <path id="Path_29" data-name="Path 29" d="M2884.514,1047.556l-.3-.841a.726.726,0,0,1-.428.142h0a.726.726,0,0,1-.726-.724l-.021-7.152.021.06v-30.331A7.329,7.329,0,0,0,2882,1004.9l-4.287-7.049a2.644,2.644,0,0,0-2.246-1.262H2860.7a3.855,3.855,0,0,0,.184,2.977c.793,2.206,2.238,3.743,3.039,3.743,2.392,0,6.877.23,7.067.24l.555.029,1.715,7.96.358,1.007-.391.324c-4.283,3.546-8.713,10.806-8.713,16.819v4.026a30.232,30.232,0,0,0,.321,4.412.726.726,0,0,1-1.436.213,31.636,31.636,0,0,1-.337-4.625v-4.026c0-6.489,4.489-13.794,8.85-17.606l-.062-.191-1.491-6.918c-1.3-.063-4.572-.211-6.437-.211-1.783,0-3.565-2.366-4.405-4.7-.779-2.166-.631-3.9.4-4.754l.2-.166h15.34a4.1,4.1,0,0,1,3.486,1.96l4.287,7.049a8.776,8.776,0,0,1,1.279,4.563v38.847Z" transform="translate(-2859.022 -995.137)" fill="#12204d"/>
      </g>
      <rect id="Rectangle_6" data-name="Rectangle 6" width="37.862" height="12.94" transform="translate(2777.223 941.122)" fill="#6e7da5"/>
      <rect id="Rectangle_7" data-name="Rectangle 7" width="12.78" height="12.94" transform="translate(2777.223 941.122)" fill="#2b427c"/>
      <path id="Path_30" data-name="Path 30" d="M2887.808,878.855l4.432-11.736a23.47,23.47,0,1,1,6.981,11.7Z" transform="translate(-90.462 -0.04)" fill="#ff3755"/>
      <circle id="Ellipse_2" data-name="Ellipse 2" cx="16.846" cy="16.846" r="16.846" transform="translate(2807.196 844.638)" fill="#ff7288"/>
      <g id="check" transform="translate(2814.937 853.902)">
        <path id="Path_32" data-name="Path 32" d="M17.1,21.743,12.04,16.69,9.514,19.217,17.1,26.8,29.728,14.164,27.2,11.635,17.1,21.743Z" transform="translate(-9.514 -11.635)" fill="#fff"/>
      </g>
    </g>
  </g>
</svg>
