<svg xmlns="http://www.w3.org/2000/svg" width="116" height="100.8" viewBox="0 0 116 100.8">
  <g id="img-illustration-3" transform="translate(-1450.743 -570.657)">
    <path id="Path_44" data-name="Path 44" d="M300.823,226.927a14.4,14.4,0,1,0-14.406-14.4,14.432,14.432,0,0,0,14.406,14.4Zm-33.086-20.247,8.349-1.567a24.633,24.633,0,0,1,1.983-4.8l-4.8-7.1a1.9,1.9,0,0,1,.208-2.191l5.949-5.845a1.73,1.73,0,0,1,2.088-.208l7.1,4.8a28.334,28.334,0,0,1,4.9-1.983l1.567-8.349a1.893,1.893,0,0,1,1.67-1.357h8.454a1.785,1.785,0,0,1,1.669,1.357l1.568,8.349a38.7,38.7,0,0,1,4.8,1.983l6.89-4.7a1.889,1.889,0,0,1,2.191.208l5.951,5.949a1.73,1.73,0,0,1,.207,2.087l-4.8,7.1a20.979,20.979,0,0,1,1.877,4.7l8.352,1.462a2.012,2.012,0,0,1,1.358,1.67V216.7a1.914,1.914,0,0,1-1.358,1.775l-8.352,1.461a27.833,27.833,0,0,1-1.877,4.9l4.7,6.89a1.891,1.891,0,0,1-.208,2.191l-5.95,5.845a1.757,1.757,0,0,1-2.191.313l-6.89-4.7a31.521,31.521,0,0,1-4.695,1.878l-1.568,8.349a1.786,1.786,0,0,1-1.669,1.358h-8.454a1.9,1.9,0,0,1-1.67-1.358l-1.567-8.244a33.11,33.11,0,0,1-4.8-1.983l-7.1,4.8a1.731,1.731,0,0,1-2.088-.208l-5.948-5.948a2.034,2.034,0,0,1-.208-2.3l4.7-6.89a28.573,28.573,0,0,1-1.983-4.9l-8.349-1.461a1.961,1.961,0,0,1-1.254-1.775v-8.349a1.585,1.585,0,0,1,1.254-1.67Zm27.137,5.843a6,6,0,1,1,5.949,5.951,5.946,5.946,0,0,1-5.949-5.951Z" transform="translate(1184.271 392.575)" fill="#12204d" fill-rule="evenodd"/>
    <path id="Path_45" data-name="Path 45" d="M292.221,214.7a10.8,10.8,0,1,0-10.8-10.8,10.818,10.818,0,0,0,10.8,10.8Zm-24.8-15.177,6.259-1.174a18.465,18.465,0,0,1,1.487-3.6l-3.6-5.32a1.425,1.425,0,0,1,.156-1.643l4.46-4.381a1.3,1.3,0,0,1,1.565-.156l5.32,3.6a21.238,21.238,0,0,1,3.676-1.487l1.174-6.258a1.419,1.419,0,0,1,1.252-1.017h6.337a1.338,1.338,0,0,1,1.251,1.017l1.175,6.258a29,29,0,0,1,3.6,1.487l5.165-3.52a1.416,1.416,0,0,1,1.643.156l4.461,4.46a1.3,1.3,0,0,1,.155,1.564l-3.6,5.321a15.726,15.726,0,0,1,1.407,3.52l6.26,1.1a1.508,1.508,0,0,1,1.018,1.252v6.337a1.435,1.435,0,0,1-1.018,1.33l-6.26,1.095a20.864,20.864,0,0,1-1.407,3.676l3.521,5.165a1.417,1.417,0,0,1-.156,1.643l-4.46,4.381a1.317,1.317,0,0,1-1.643.235l-5.165-3.52a23.632,23.632,0,0,1-3.519,1.408l-1.175,6.258a1.339,1.339,0,0,1-1.251,1.018H289.17a1.42,1.42,0,0,1-1.252-1.018l-1.174-6.18a24.82,24.82,0,0,1-3.6-1.487l-5.321,3.6a1.3,1.3,0,0,1-1.565-.156l-4.459-4.459a1.524,1.524,0,0,1-.156-1.721l3.52-5.165a21.418,21.418,0,0,1-1.487-3.676l-6.259-1.095a1.47,1.47,0,0,1-.94-1.33v-6.259a1.188,1.188,0,0,1,.94-1.252Zm20.342,4.38a4.5,4.5,0,1,1,4.46,4.461,4.457,4.457,0,0,1-4.46-4.461Z" transform="translate(1248.704 441.738)" fill="#bfc6d9" fill-rule="evenodd"/>
  </g>
</svg>
