<svg xmlns="http://www.w3.org/2000/svg" xmlns:xlink="http://www.w3.org/1999/xlink" width="66" height="66" viewBox="0 0 66 66">
  <defs>
    <filter id="Rectangle_3673" x="0" y="0" width="66" height="66" filterUnits="userSpaceOnUse">
      <feOffset dy="1" input="SourceAlpha"/>
      <feGaussianBlur stdDeviation="1" result="blur"/>
      <feFlood flood-opacity="0.078"/>
      <feComposite operator="in" in2="blur"/>
      <feComposite in="SourceGraphic"/>
    </filter>
    <linearGradient id="linear-gradient" y1="0.5" x2="1" y2="0.5" gradientUnits="objectBoundingBox">
      <stop offset="0.29" stop-color="#0796e5"/>
      <stop offset="0.85" stop-color="#6ac0ef"/>
    </linearGradient>
    <linearGradient id="linear-gradient-2" x1="0" y1="0.5" x2="1" y2="0.5" xlink:href="#linear-gradient"/>
    <linearGradient id="linear-gradient-3" x1="-0.937" y1="0.5" x2="1.513" y2="0.5" gradientUnits="objectBoundingBox">
      <stop offset="0" stop-color="#f12711"/>
      <stop offset="0.18" stop-color="#f12a11"/>
      <stop offset="0.31" stop-color="#f13312"/>
      <stop offset="0.43" stop-color="#f24213"/>
      <stop offset="0.53" stop-color="#f25814"/>
      <stop offset="0.63" stop-color="#f37516"/>
      <stop offset="0.72" stop-color="#f49718"/>
      <stop offset="0.77" stop-color="#f5af19"/>
    </linearGradient>
  </defs>
  <g id="axdif-icon-square-white" transform="translate(3 2)">
    <g transform="matrix(1, 0, 0, 1, -3, -2)" filter="url(#Rectangle_3673)">
      <rect id="Rectangle_3673-2" data-name="Rectangle 3673" width="60" height="60" rx="8" transform="translate(3 2)" fill="#fff"/>
    </g>
    <path id="Path_20632" data-name="Path 20632" d="M225.88,507.433V500.77L212.849,513.8l.031,0a3.915,3.915,0,0,0,5.556,5.519l11.889-11.885Z" transform="translate(-199.979 -472.949)" fill="url(#linear-gradient)"/>
    <path id="Path_20633" data-name="Path 20633" d="M479.293,513.783l-5.537-5.537-7.526-7.476v11.075l7.526,7.473a3.915,3.915,0,1,0,5.537-5.536Z" transform="translate(-440.328 -472.949)" fill="url(#linear-gradient-2)"/>
    <path id="Path_20634" data-name="Path 20634" d="M284.059,240.14l-14.6,3.608-11.01,10.878-5.537-5.538a3.915,3.915,0,1,0-5.537,5.538l11.045,11.044v.031l.017-.013.014.014Z" transform="translate(-232.551 -226.799)" fill="url(#linear-gradient-3)"/>
  </g>
</svg>
